<svg xmlns="http://www.w3.org/2000/svg" xmlns:xlink="http://www.w3.org/1999/xlink" viewBox="0 0 245.52 247.58"><defs><style>.cls-1{isolation:isolate;}.cls-2{fill:url(#Degradado_sin_nombre_24);}.cls-10,.cls-13,.cls-3,.cls-6,.cls-9{opacity:0.3;}.cls-10,.cls-11,.cls-12,.cls-13,.cls-3,.cls-6,.cls-9{mix-blend-mode:screen;}.cls-3{fill:url(#_åðíî-áåëûé);}.cls-4{fill:url(#Degradado_sin_nombre_89);}.cls-5,.cls-7,.cls-8{opacity:0.2;}.cls-5,.cls-7,.cls-8,.cls-87,.cls-88,.cls-89{mix-blend-mode:multiply;}.cls-5{fill:url(#Degradado_sin_nombre_125);}.cls-6{fill:url(#_åðíî-áåëûé-2);}.cls-7{fill:url(#Áåçûìÿííûé_ãðàäèåíò_11);}.cls-8{fill:url(#Áåçûìÿííûé_ãðàäèåíò_11-2);}.cls-9{fill:url(#Degradado_sin_nombre_109);}.cls-10{fill:url(#Degradado_sin_nombre_109-2);}.cls-11{opacity:0.1;fill:url(#_åðíî-áåëûé-3);}.cls-12,.cls-13{fill:#fff;}.cls-12{opacity:0.4;}.cls-14{fill:url(#Áåçûìÿííûé_ãðàäèåíò_19);}.cls-15{fill:url(#Áåçûìÿííûé_ãðàäèåíò_19-2);}.cls-16{fill:url(#Áåçûìÿííûé_ãðàäèåíò_19-3);}.cls-17{fill:url(#Áåçûìÿííûé_ãðàäèåíò_19-4);}.cls-18{fill:url(#Áåçûìÿííûé_ãðàäèåíò_19-5);}.cls-19{fill:url(#Áåçûìÿííûé_ãðàäèåíò_19-6);}.cls-20{fill:url(#Áåçûìÿííûé_ãðàäèåíò_19-7);}.cls-21{fill:url(#Áåçûìÿííûé_ãðàäèåíò_19-8);}.cls-22{fill:url(#Áåçûìÿííûé_ãðàäèåíò_19-9);}.cls-23{fill:url(#Áåçûìÿííûé_ãðàäèåíò_19-10);}.cls-24{fill:url(#Áåçûìÿííûé_ãðàäèåíò_19-11);}.cls-25{fill:url(#Áåçûìÿííûé_ãðàäèåíò_19-12);}.cls-26{fill:url(#Áåçûìÿííûé_ãðàäèåíò_19-13);}.cls-27{fill:url(#Áåçûìÿííûé_ãðàäèåíò_19-14);}.cls-28{fill:url(#Áåçûìÿííûé_ãðàäèåíò_19-15);}.cls-29{fill:url(#Áåçûìÿííûé_ãðàäèåíò_19-16);}.cls-30{fill:url(#Áåçûìÿííûé_ãðàäèåíò_19-17);}.cls-31{fill:url(#Áåçûìÿííûé_ãðàäèåíò_19-18);}.cls-32{fill:url(#Áåçûìÿííûé_ãðàäèåíò_19-19);}.cls-33{fill:url(#Áåçûìÿííûé_ãðàäèåíò_19-20);}.cls-34{fill:url(#Áåçûìÿííûé_ãðàäèåíò_19-21);}.cls-35{fill:url(#Áåçûìÿííûé_ãðàäèåíò_19-22);}.cls-36{fill:url(#Áåçûìÿííûé_ãðàäèåíò_19-23);}.cls-37{fill:url(#Áåçûìÿííûé_ãðàäèåíò_19-24);}.cls-38{fill:url(#Áåçûìÿííûé_ãðàäèåíò_19-25);}.cls-39{fill:url(#Áåçûìÿííûé_ãðàäèåíò_19-26);}.cls-40{fill:url(#Áåçûìÿííûé_ãðàäèåíò_19-27);}.cls-41{fill:url(#Áåçûìÿííûé_ãðàäèåíò_19-28);}.cls-42{fill:url(#Áåçûìÿííûé_ãðàäèåíò_19-29);}.cls-43{fill:url(#Áåçûìÿííûé_ãðàäèåíò_19-30);}.cls-44{fill:url(#Áåçûìÿííûé_ãðàäèåíò_19-31);}.cls-45{fill:url(#Áåçûìÿííûé_ãðàäèåíò_19-32);}.cls-46{fill:url(#Áåçûìÿííûé_ãðàäèåíò_19-33);}.cls-47{fill:url(#Áåçûìÿííûé_ãðàäèåíò_19-34);}.cls-48{fill:url(#Áåçûìÿííûé_ãðàäèåíò_19-35);}.cls-49{fill:url(#Áåçûìÿííûé_ãðàäèåíò_19-36);}.cls-50{fill:url(#Áåçûìÿííûé_ãðàäèåíò_19-37);}.cls-51{fill:url(#Áåçûìÿííûé_ãðàäèåíò_19-38);}.cls-52{fill:url(#Áåçûìÿííûé_ãðàäèåíò_19-39);}.cls-53{fill:url(#Áåçûìÿííûé_ãðàäèåíò_19-40);}.cls-54{fill:url(#Áåçûìÿííûé_ãðàäèåíò_19-41);}.cls-55{fill:url(#Áåçûìÿííûé_ãðàäèåíò_19-42);}.cls-56{fill:url(#Áåçûìÿííûé_ãðàäèåíò_19-43);}.cls-57{fill:url(#Áåçûìÿííûé_ãðàäèåíò_19-44);}.cls-58{fill:url(#Áåçûìÿííûé_ãðàäèåíò_19-45);}.cls-59{fill:url(#Áåçûìÿííûé_ãðàäèåíò_19-46);}.cls-60{fill:url(#Áåçûìÿííûé_ãðàäèåíò_19-47);}.cls-61{fill:url(#Áåçûìÿííûé_ãðàäèåíò_19-48);}.cls-62{fill:url(#Áåçûìÿííûé_ãðàäèåíò_19-49);}.cls-63{fill:url(#Áåçûìÿííûé_ãðàäèåíò_19-50);}.cls-64{fill:url(#Áåçûìÿííûé_ãðàäèåíò_19-51);}.cls-65{fill:url(#Áåçûìÿííûé_ãðàäèåíò_19-52);}.cls-66{fill:url(#Áåçûìÿííûé_ãðàäèåíò_19-53);}.cls-67{fill:url(#Áåçûìÿííûé_ãðàäèåíò_19-54);}.cls-68{fill:url(#Áåçûìÿííûé_ãðàäèåíò_19-55);}.cls-69{fill:url(#Áåçûìÿííûé_ãðàäèåíò_19-56);}.cls-70{fill:url(#Áåçûìÿííûé_ãðàäèåíò_19-57);}.cls-71{fill:url(#Áåçûìÿííûé_ãðàäèåíò_19-58);}.cls-72{fill:url(#Áåçûìÿííûé_ãðàäèåíò_19-59);}.cls-73{fill:url(#Áåçûìÿííûé_ãðàäèåíò_19-60);}.cls-74{fill:url(#Áåçûìÿííûé_ãðàäèåíò_19-61);}.cls-75{fill:url(#Áåçûìÿííûé_ãðàäèåíò_19-62);}.cls-76{fill:url(#Áåçûìÿííûé_ãðàäèåíò_19-63);}.cls-77{fill:url(#Áåçûìÿííûé_ãðàäèåíò_19-64);}.cls-78{fill:url(#Áåçûìÿííûé_ãðàäèåíò_19-65);}.cls-79{fill:url(#Áåçûìÿííûé_ãðàäèåíò_19-66);}.cls-80{fill:url(#Áåçûìÿííûé_ãðàäèåíò_19-67);}.cls-81{fill:url(#Áåçûìÿííûé_ãðàäèåíò_19-68);}.cls-82{fill:url(#Áåçûìÿííûé_ãðàäèåíò_19-69);}.cls-83{fill:url(#Áåçûìÿííûé_ãðàäèåíò_19-70);}.cls-84{fill:url(#Áåçûìÿííûé_ãðàäèåíò_19-71);}.cls-85{fill:url(#Áåçûìÿííûé_ãðàäèåíò_19-72);}.cls-86{opacity:0.8;}.cls-87,.cls-88,.cls-89{opacity:0.5;}.cls-87{fill:url(#Degradado_sin_nombre_153);}.cls-88{fill:url(#Degradado_sin_nombre_144);}.cls-89{fill:url(#Degradado_sin_nombre_140);}</style><linearGradient id="Degradado_sin_nombre_24" x1="124.2" y1="78.57" x2="124.2" y2="183.61" gradientUnits="userSpaceOnUse"><stop offset="0" stop-color="#324697"/><stop offset="1" stop-color="#111426"/></linearGradient><linearGradient id="_åðíî-áåëûé" x1="124.2" y1="67.93" x2="124.2" y2="100.2" gradientUnits="userSpaceOnUse"><stop offset="0" stop-color="#fff"/><stop offset="1"/></linearGradient><linearGradient id="Degradado_sin_nombre_89" x1="124.2" y1="76.3" x2="124.2" y2="127.79" gradientUnits="userSpaceOnUse"><stop offset="0.03" stop-color="#20274c"/><stop offset="0.04" stop-color="#242a5a"/><stop offset="1" stop-color="#174194"/></linearGradient><linearGradient id="Degradado_sin_nombre_125" x1="124.9" y1="141.18" x2="124.9" y2="186.82" gradientUnits="userSpaceOnUse"><stop offset="0" stop-color="#4464ad"/><stop offset="1" stop-color="#282d68"/></linearGradient><linearGradient id="_åðíî-áåëûé-2" x1="124.2" y1="187.43" x2="124.2" y2="150.29" xlink:href="#_åðíî-áåëûé"/><linearGradient id="Áåçûìÿííûé_ãðàäèåíò_11" x1="134.34" y1="85.93" x2="136.1" y2="81.69" gradientUnits="userSpaceOnUse"><stop offset="0" stop-color="#a12025"/><stop offset="1" stop-color="#c1272d"/></linearGradient><linearGradient id="Áåçûìÿííûé_ãðàäèåíò_11-2" x1="105.84" y1="91.12" x2="103.6" y2="89.2" xlink:href="#Áåçûìÿííûé_ãðàäèåíò_11"/><linearGradient id="Degradado_sin_nombre_109" x1="134.34" y1="703.61" x2="136.1" y2="699.37" gradientTransform="matrix(1, 0, 0, -1, 0, 834.67)" gradientUnits="userSpaceOnUse"><stop offset="0" stop-color="#202249"/><stop offset="1" stop-color="#2c4a9a"/></linearGradient><linearGradient id="Degradado_sin_nombre_109-2" x1="105.84" y1="709.28" x2="103.6" y2="707.36" xlink:href="#Degradado_sin_nombre_109"/><linearGradient id="_åðíî-áåëûé-3" x1="124.19" y1="64.26" x2="124.19" y2="74.81" xlink:href="#_åðíî-áåëûé"/><linearGradient id="Áåçûìÿííûé_ãðàäèåíò_19" x1="137.36" y1="83.01" x2="137.36" y2="137.36" gradientUnits="userSpaceOnUse"><stop offset="0" stop-color="#e8e8e8"/><stop offset="0.44" stop-color="#b8b7b7"/><stop offset="1" stop-color="#999696"/></linearGradient><linearGradient id="Áåçûìÿííûé_ãðàäèåíò_19-2" x1="139.38" y1="80.01" x2="139.38" y2="142.72" xlink:href="#Áåçûìÿííûé_ãðàäèåíò_19"/><linearGradient id="Áåçûìÿííûé_ãðàäèåíò_19-3" x1="119.11" y1="81.2" x2="119.11" y2="134.92" xlink:href="#Áåçûìÿííûé_ãðàäèåíò_19"/><linearGradient id="Áåçûìÿííûé_ãðàäèåíò_19-4" x1="112.53" y1="82.91" x2="112.53" y2="137.46" xlink:href="#Áåçûìÿííûé_ãðàäèåíò_19"/><linearGradient id="Áåçûìÿííûé_ãðàäèåíò_19-5" x1="107.86" y1="82.74" x2="107.86" y2="136.9" xlink:href="#Áåçûìÿííûé_ãðàäèåíò_19"/><linearGradient id="Áåçûìÿííûé_ãðàäèåíò_19-6" x1="116.1" y1="82.83" x2="116.1" y2="130.96" xlink:href="#Áåçûìÿííûé_ãðàäèåíò_19"/><linearGradient id="Áåçûìÿííûé_ãðàäèåíò_19-7" x1="115.12" y1="85.53" x2="115.12" y2="120.89" xlink:href="#Áåçûìÿííûé_ãðàäèåíò_19"/><linearGradient id="Áåçûìÿííûé_ãðàäèåíò_19-8" x1="113.17" y1="70.79" x2="113.17" y2="214.58" xlink:href="#Áåçûìÿííûé_ãðàäèåíò_19"/><linearGradient id="Áåçûìÿííûé_ãðàäèåíò_19-9" x1="112.72" y1="62.18" x2="112.72" y2="243.83" xlink:href="#Áåçûìÿííûé_ãðàäèåíò_19"/><linearGradient id="Áåçûìÿííûé_ãðàäèåíò_19-10" x1="112.19" y1="74.59" x2="112.19" y2="194.11" xlink:href="#Áåçûìÿííûé_ãðàäèåíò_19"/><linearGradient id="Áåçûìÿííûé_ãðàäèåíò_19-11" x1="106.24" y1="82.12" x2="106.24" y2="137.93" xlink:href="#Áåçûìÿííûé_ãðàäèåíò_19"/><linearGradient id="Áåçûìÿííûé_ãðàäèåíò_19-12" x1="110.79" y1="103.16" x2="110.79" y2="123.02" xlink:href="#Áåçûìÿííûé_ãðàäèåíò_19"/><linearGradient id="Áåçûìÿííûé_ãðàäèåíò_19-13" x1="114.62" y1="93.9" x2="114.62" y2="134.67" xlink:href="#Áåçûìÿííûé_ãðàäèåíò_19"/><linearGradient id="Áåçûìÿííûé_ãðàäèåíò_19-14" x1="114.66" y1="97.7" x2="114.66" y2="133.68" xlink:href="#Áåçûìÿííûé_ãðàäèåíò_19"/><linearGradient id="Áåçûìÿííûé_ãðàäèåíò_19-15" x1="116.35" y1="89.9" x2="116.35" y2="136.19" xlink:href="#Áåçûìÿííûé_ãðàäèåíò_19"/><linearGradient id="Áåçûìÿííûé_ãðàäèåíò_19-16" x1="115.9" y1="91.41" x2="115.9" y2="135.83" xlink:href="#Áåçûìÿííûé_ãðàäèåíò_19"/><linearGradient id="Áåçûìÿííûé_ãðàäèåíò_19-17" x1="117.65" y1="82.89" x2="117.65" y2="138.97" xlink:href="#Áåçûìÿííûé_ãðàäèåíò_19"/><linearGradient id="Áåçûìÿííûé_ãðàäèåíò_19-18" x1="107.4" y1="83.26" x2="107.4" y2="153.66" xlink:href="#Áåçûìÿííûé_ãðàäèåíò_19"/><linearGradient id="Áåçûìÿííûé_ãðàäèåíò_19-19" x1="107.89" y1="86.31" x2="107.89" y2="133.12" xlink:href="#Áåçûìÿííûé_ãðàäèåíò_19"/><linearGradient id="Áåçûìÿííûé_ãðàäèåíò_19-20" x1="107.78" y1="78.45" x2="107.78" y2="176.91" xlink:href="#Áåçûìÿííûé_ãðàäèåíò_19"/><linearGradient id="Áåçûìÿííûé_ãðàäèåíò_19-21" x1="110.69" y1="80.88" x2="110.69" y2="139.23" xlink:href="#Áåçûìÿííûé_ãðàäèåíò_19"/><linearGradient id="Áåçûìÿííûé_ãðàäèåíò_19-22" x1="143.22" y1="85.17" x2="143.22" y2="134.36" xlink:href="#Áåçûìÿííûé_ãðàäèåíò_19"/><linearGradient id="Áåçûìÿííûé_ãðàäèåíò_19-23" x1="130.02" y1="81.07" x2="130.02" y2="136.43" xlink:href="#Áåçûìÿííûé_ãðàäèåíò_19"/><linearGradient id="Áåçûìÿííûé_ãðàäèåíò_19-24" x1="109.64" y1="81.8" x2="109.64" y2="161.66" xlink:href="#Áåçûìÿííûé_ãðàäèåíò_19"/><linearGradient id="Áåçûìÿííûé_ãðàäèåíò_19-25" x1="112.71" y1="80.06" x2="112.71" y2="140.23" xlink:href="#Áåçûìÿííûé_ãðàäèåíò_19"/><linearGradient id="Áåçûìÿííûé_ãðàäèåíò_19-26" x1="141.8" y1="88.89" x2="141.8" y2="126.1" xlink:href="#Áåçûìÿííûé_ãðàäèåíò_19"/><linearGradient id="Áåçûìÿííûé_ãðàäèåíò_19-27" x1="108.17" y1="82.97" x2="108.17" y2="168.42" xlink:href="#Áåçûìÿííûé_ãðàäèåíò_19"/><linearGradient id="Áåçûìÿííûé_ãðàäèåíò_19-28" x1="110.76" y1="84.99" x2="110.76" y2="136.08" xlink:href="#Áåçûìÿííûé_ãðàäèåíò_19"/><linearGradient id="Áåçûìÿííûé_ãðàäèåíò_19-29" x1="139.41" y1="80.07" x2="139.41" y2="199.63" xlink:href="#Áåçûìÿííûé_ãðàäèåíò_19"/><linearGradient id="Áåçûìÿííûé_ãðàäèåíò_19-30" x1="140.45" y1="85.44" x2="140.45" y2="158.71" xlink:href="#Áåçûìÿííûé_ãðàäèåíò_19"/><linearGradient id="Áåçûìÿííûé_ãðàäèåíò_19-31" x1="117.93" y1="84.54" x2="117.93" y2="137.93" xlink:href="#Áåçûìÿííûé_ãðàäèåíò_19"/><linearGradient id="Áåçûìÿííûé_ãðàäèåíò_19-32" x1="111.09" y1="81.98" x2="111.09" y2="137.51" xlink:href="#Áåçûìÿííûé_ãðàäèåíò_19"/><linearGradient id="Áåçûìÿííûé_ãðàäèåíò_19-33" x1="109.46" y1="84.61" x2="109.46" y2="138.23" xlink:href="#Áåçûìÿííûé_ãðàäèåíò_19"/><linearGradient id="Áåçûìÿííûé_ãðàäèåíò_19-34" x1="141.27" y1="85.26" x2="141.27" y2="140.25" xlink:href="#Áåçûìÿííûé_ãðàäèåíò_19"/><linearGradient id="Áåçûìÿííûé_ãðàäèåíò_19-35" x1="111.75" y1="80.66" x2="111.75" y2="145.51" xlink:href="#Áåçûìÿííûé_ãðàäèåíò_19"/><linearGradient id="Áåçûìÿííûé_ãðàäèåíò_19-36" x1="111.17" y1="80.45" x2="111.17" y2="139.8" xlink:href="#Áåçûìÿííûé_ãðàäèåíò_19"/><linearGradient id="Áåçûìÿííûé_ãðàäèåíò_19-37" x1="115.6" y1="84.15" x2="115.6" y2="129.25" xlink:href="#Áåçûìÿííûé_ãðàäèåíò_19"/><linearGradient id="Áåçûìÿííûé_ãðàäèåíò_19-38" x1="122.78" y1="85.93" x2="122.78" y2="138.5" xlink:href="#Áåçûìÿííûé_ãðàäèåíò_19"/><linearGradient id="Áåçûìÿííûé_ãðàäèåíò_19-39" x1="134.4" y1="81.04" x2="134.4" y2="153.72" xlink:href="#Áåçûìÿííûé_ãðàäèåíò_19"/><linearGradient id="Áåçûìÿííûé_ãðàäèåíò_19-40" x1="111.64" y1="82.52" x2="111.64" y2="150.28" xlink:href="#Áåçûìÿííûé_ãðàäèåíò_19"/><linearGradient id="Áåçûìÿííûé_ãðàäèåíò_19-41" x1="109.1" y1="87.99" x2="109.1" y2="121.07" xlink:href="#Áåçûìÿííûé_ãðàäèåíò_19"/><linearGradient id="Áåçûìÿííûé_ãðàäèåíò_19-42" x1="114.02" y1="79.24" x2="114.02" y2="141.21" xlink:href="#Áåçûìÿííûé_ãðàäèåíò_19"/><linearGradient id="Áåçûìÿííûé_ãðàäèåíò_19-43" x1="130.15" y1="81.71" x2="130.15" y2="134.26" xlink:href="#Áåçûìÿííûé_ãðàäèåíò_19"/><linearGradient id="Áåçûìÿííûé_ãðàäèåíò_19-44" x1="131.35" y1="81.32" x2="131.35" y2="136.11" xlink:href="#Áåçûìÿííûé_ãðàäèåíò_19"/><linearGradient id="Áåçûìÿííûé_ãðàäèåíò_19-45" x1="107.79" y1="79.64" x2="107.79" y2="187.3" xlink:href="#Áåçûìÿííûé_ãðàäèåíò_19"/><linearGradient id="Áåçûìÿííûé_ãðàäèåíò_19-46" x1="110.38" y1="84.07" x2="110.38" y2="149.29" xlink:href="#Áåçûìÿííûé_ãðàäèåíò_19"/><linearGradient id="Áåçûìÿííûé_ãðàäèåíò_19-47" x1="112.39" y1="82.82" x2="112.39" y2="135.54" xlink:href="#Áåçûìÿííûé_ãðàäèåíò_19"/><linearGradient id="Áåçûìÿííûé_ãðàäèåíò_19-48" x1="128.85" y1="79.1" x2="128.85" y2="141.03" xlink:href="#Áåçûìÿííûé_ãðàäèåíò_19"/><linearGradient id="Áåçûìÿííûé_ãðàäèåíò_19-49" x1="108.92" y1="84.03" x2="108.92" y2="148.54" xlink:href="#Áåçûìÿííûé_ãðàäèåíò_19"/><linearGradient id="Áåçûìÿííûé_ãðàäèåíò_19-50" x1="112.6" y1="80.21" x2="112.6" y2="140.01" xlink:href="#Áåçûìÿííûé_ãðàäèåíò_19"/><linearGradient id="Áåçûìÿííûé_ãðàäèåíò_19-51" x1="107.66" y1="84.77" x2="107.66" y2="156.94" xlink:href="#Áåçûìÿííûé_ãðàäèåíò_19"/><linearGradient id="Áåçûìÿííûé_ãðàäèåíò_19-52" x1="115.7" y1="82.14" x2="115.7" y2="134.37" xlink:href="#Áåçûìÿííûé_ãðàäèåíò_19"/><linearGradient id="Áåçûìÿííûé_ãðàäèåíò_19-53" x1="146.22" y1="85.12" x2="146.22" y2="134.45" xlink:href="#Áåçûìÿííûé_ãðàäèåíò_19"/><linearGradient id="Áåçûìÿííûé_ãðàäèåíò_19-54" x1="112.04" y1="80.16" x2="112.04" y2="140.12" xlink:href="#Áåçûìÿííûé_ãðàäèåíò_19"/><linearGradient id="Áåçûìÿííûé_ãðàäèåíò_19-55" x1="125.51" y1="81.02" x2="125.51" y2="137.18" xlink:href="#Áåçûìÿííûé_ãðàäèåíò_19"/><linearGradient id="Áåçûìÿííûé_ãðàäèåíò_19-56" x1="126.97" y1="81.72" x2="126.97" y2="130.85" xlink:href="#Áåçûìÿííûé_ãðàäèåíò_19"/><linearGradient id="Áåçûìÿííûé_ãðàäèåíò_19-57" x1="114.91" y1="81.45" x2="114.91" y2="137.72" xlink:href="#Áåçûìÿííûé_ãðàäèåíò_19"/><linearGradient id="Áåçûìÿííûé_ãðàäèåíò_19-58" x1="126.99" y1="80.72" x2="126.99" y2="136.6" xlink:href="#Áåçûìÿííûé_ãðàäèåíò_19"/><linearGradient id="Áåçûìÿííûé_ãðàäèåíò_19-59" x1="110.03" y1="84.84" x2="110.03" y2="136.78" xlink:href="#Áåçûìÿííûé_ãðàäèåíò_19"/><linearGradient id="Áåçûìÿííûé_ãðàäèåíò_19-60" x1="109.71" y1="83.64" x2="109.71" y2="154.19" xlink:href="#Áåçûìÿííûé_ãðàäèåíò_19"/><linearGradient id="Áåçûìÿííûé_ãðàäèåíò_19-61" x1="134.18" y1="83.76" x2="134.18" y2="129.06" xlink:href="#Áåçûìÿííûé_ãðàäèåíò_19"/><linearGradient id="Áåçûìÿííûé_ãðàäèåíò_19-62" x1="137.68" y1="85.26" x2="137.68" y2="129.24" xlink:href="#Áåçûìÿííûé_ãðàäèåíò_19"/><linearGradient id="Áåçûìÿííûé_ãðàäèåíò_19-63" x1="143.7" y1="83.68" x2="143.7" y2="137.75" xlink:href="#Áåçûìÿííûé_ãðàäèåíò_19"/><linearGradient id="Áåçûìÿííûé_ãðàäèåíò_19-64" x1="139.28" y1="83.74" x2="139.28" y2="134.46" xlink:href="#Áåçûìÿííûé_ãðàäèåíò_19"/><linearGradient id="Áåçûìÿííûé_ãðàäèåíò_19-65" x1="110.96" y1="81.45" x2="110.96" y2="138.85" xlink:href="#Áåçûìÿííûé_ãðàäèåíò_19"/><linearGradient id="Áåçûìÿííûé_ãðàäèåíò_19-66" x1="134.74" y1="81.28" x2="134.74" y2="137.85" xlink:href="#Áåçûìÿííûé_ãðàäèåíò_19"/><linearGradient id="Áåçûìÿííûé_ãðàäèåíò_19-67" x1="138.92" y1="79.25" x2="138.92" y2="142.95" xlink:href="#Áåçûìÿííûé_ãðàäèåíò_19"/><linearGradient id="Áåçûìÿííûé_ãðàäèåíò_19-68" x1="140.93" y1="86.26" x2="140.93" y2="130.58" xlink:href="#Áåçûìÿííûé_ãðàäèåíò_19"/><linearGradient id="Áåçûìÿííûé_ãðàäèåíò_19-69" x1="140.99" y1="98.71" x2="140.99" y2="104.08" xlink:href="#Áåçûìÿííûé_ãðàäèåíò_19"/><linearGradient id="Áåçûìÿííûé_ãðàäèåíò_19-70" x1="133.22" y1="80.3" x2="133.22" y2="139.47" xlink:href="#Áåçûìÿííûé_ãðàäèåíò_19"/><linearGradient id="Áåçûìÿííûé_ãðàäèåíò_19-71" x1="141.15" y1="83.27" x2="141.15" y2="136.28" xlink:href="#Áåçûìÿííûé_ãðàäèåíò_19"/><linearGradient id="Áåçûìÿííûé_ãðàäèåíò_19-72" x1="144.14" y1="84.16" x2="144.14" y2="136.72" xlink:href="#Áåçûìÿííûé_ãðàäèåíò_19"/><radialGradient id="Degradado_sin_nombre_153" cx="124.2" cy="-1705.79" r="51.69" gradientTransform="translate(0 599) scale(1 0.23)" gradientUnits="userSpaceOnUse"><stop offset="0" stop-color="#1a1c38"/><stop offset="0.01" stop-color="#262842"/><stop offset="0.07" stop-color="#53556a"/><stop offset="0.14" stop-color="#7c7d8d"/><stop offset="0.21" stop-color="#a0a0ac"/><stop offset="0.28" stop-color="#bdbec6"/><stop offset="0.37" stop-color="#d6d6db"/><stop offset="0.46" stop-color="#e8e8eb"/><stop offset="0.57" stop-color="#f5f5f6"/><stop offset="0.71" stop-color="#fdfdfd"/><stop offset="1" stop-color="#fff"/></radialGradient><radialGradient id="Degradado_sin_nombre_144" cx="124.2" cy="-1705.79" r="30.73" gradientTransform="translate(0 599) scale(1 0.23)" gradientUnits="userSpaceOnUse"><stop offset="0" stop-color="#26285a"/><stop offset="0" stop-color="#27295b"/><stop offset="0.06" stop-color="#54567d"/><stop offset="0.13" stop-color="#7c7d9c"/><stop offset="0.2" stop-color="#a0a1b6"/><stop offset="0.27" stop-color="#bdbecd"/><stop offset="0.36" stop-color="#d6d6df"/><stop offset="0.45" stop-color="#e8e8ee"/><stop offset="0.56" stop-color="#f5f5f8"/><stop offset="0.71" stop-color="#fdfdfd"/><stop offset="1" stop-color="#fff"/></radialGradient><radialGradient id="Degradado_sin_nombre_140" cx="124.2" cy="-1705.79" r="13.91" gradientTransform="translate(0 599) scale(1 0.23)" gradientUnits="userSpaceOnUse"><stop offset="0" stop-color="#1a1b38"/><stop offset="0.01" stop-color="#262742"/><stop offset="0.07" stop-color="#53546a"/><stop offset="0.14" stop-color="#7c7d8d"/><stop offset="0.21" stop-color="#a0a0ac"/><stop offset="0.28" stop-color="#bdbec6"/><stop offset="0.37" stop-color="#d6d6db"/><stop offset="0.46" stop-color="#e8e8eb"/><stop offset="0.57" stop-color="#f5f5f6"/><stop offset="0.71" stop-color="#fdfdfd"/><stop offset="1" stop-color="#fff"/></radialGradient></defs><g class="cls-1"><g id="Ñëîé_1" data-name="Ñëîé 1"><path class="cls-2" d="M169.73,106.38A45.58,45.58,0,1,0,82.21,126c10,27.08,37.79,59.46,41.56,63.1a.62.62,0,0,0,.86,0c4.12-3.79,36.32-39.08,43.64-69.24.08-.29.15-.58.22-.87s.13-.58.2-.87a45.13,45.13,0,0,0,.94-6.42c0-.09,0-.17,0-.25.07-1.07.13-2.14.13-3.22C169.78,107.58,169.76,107,169.73,106.38ZM124.2,131.89a23.64,23.64,0,1,1,23.63-23.64A23.63,23.63,0,0,1,124.2,131.89Z"/><path class="cls-3" d="M86,108A37.37,37.37,0,0,1,88.3,93.17a38,38,0,0,1,8.17-12.86,38.48,38.48,0,0,1,12.64-8.69,38.6,38.6,0,0,1,30.17,0,38.63,38.63,0,0,1,12.65,8.69,38.09,38.09,0,0,1,8.16,12.86A37.19,37.19,0,0,1,162.44,108a.37.37,0,0,1-.38.35.38.38,0,0,1-.35-.35A38.61,38.61,0,0,0,150,82.19a37.24,37.24,0,0,0-51.69,0A38.61,38.61,0,0,0,86.68,108a.37.37,0,0,1-.73,0Z"/><path class="cls-4" d="M124.2,77.81a30.45,30.45,0,1,0,30.44,30.44A30.44,30.44,0,0,0,124.2,77.81Zm0,54.08a23.64,23.64,0,1,1,23.63-23.64A23.63,23.63,0,0,1,124.2,131.89Z"/><path class="cls-5" d="M124,152.21a51.27,51.27,0,0,1-37.3-16c12.07,23.43,33.73,49.75,37,52.93a.62.62,0,0,0,.86,0c3.46-3.18,26.73-30,38.43-54.85A51.3,51.3,0,0,1,124,152.21Z"/><path class="cls-6" d="M150.74,145a.36.36,0,0,0-.47.18v0a56.52,56.52,0,0,1-5.7,9.23c-2.14,2.93-4.38,5.81-6.69,8.63-4.4,5.37-9,10.62-13.67,15.74-4.69-5.12-9.27-10.37-13.68-15.74q-3.47-4.23-6.69-8.63a56.52,56.52,0,0,1-5.7-9.23v0a.36.36,0,0,0-.47-.18.36.36,0,0,0-.19.48A56.81,56.81,0,0,0,103,155c2.08,3,4.26,6,6.51,8.84,4.49,5.77,9.16,11.38,14,16.89,0,0,0,.07.08.09a.87.87,0,0,0,.24.15h0a.86.86,0,0,0,.23.06l.13,0,.12,0a1.05,1.05,0,0,0,.24-.06h0a.92.92,0,0,0,.25-.15s0-.06.07-.09c4.82-5.51,9.48-11.12,14-16.89q3.38-4.32,6.52-8.84a56.76,56.76,0,0,0,5.55-9.52A.36.36,0,0,0,150.74,145Z"/><path class="cls-7" d="M133.77,80.29a17,17,0,0,1,4.88,2.24c-2.48,3.12-3.56,4.52-3.56,4.52l-2.5-1.13Z"/><path class="cls-8" d="M102.73,97.25c2.16-3.68,5-8,8.56-9.52-1.52-2.88-2.8-5.12-2.8-5.12a27.39,27.39,0,0,0-11,12.16C100,95.89,102.73,97.25,102.73,97.25Z"/><path class="cls-9" d="M133.77,136.7a17,17,0,0,0,4.88-2.24c-2.48-3.12-3.56-4.52-3.56-4.52l-2.5,1.13Z"/><path class="cls-10" d="M102.73,119.26c2.16,3.68,5,8,8.56,9.52-1.52,2.88-2.8,5.12-2.8,5.12a27.39,27.39,0,0,1-11-12.16C100,120.62,102.73,119.26,102.73,119.26Z"/><path class="cls-11" d="M124.2,65.33a54.78,54.78,0,0,1,31.56,10,45.59,45.59,0,0,0-63.15,0A54.88,54.88,0,0,1,124.2,65.33Z"/><path class="cls-12" d="M154.17,113.63a30,30,0,0,1-3.42,9.87,30.86,30.86,0,0,1-6.62,8.13,30.41,30.41,0,0,1-39,.73,30.85,30.85,0,0,1-6.93-7.88,29.82,29.82,0,0,1-3.78-9.73,30.68,30.68,0,0,0,20.14,22,30.67,30.67,0,0,0,20.28-.37,30.85,30.85,0,0,0,8.9-5.2,30.49,30.49,0,0,0,6.68-7.89A31.11,31.11,0,0,0,154.17,113.63Z"/><path class="cls-13" d="M93.85,105.82a29.88,29.88,0,0,1,2.76-11A30.45,30.45,0,0,1,113,79.46,30.47,30.47,0,0,1,151.85,95a30,30,0,0,1,2.7,11l-.17-1.41-.24-1.4c-.09-.46-.2-.92-.3-1.38s-.24-.92-.35-1.37a30.61,30.61,0,0,0-18.28-20.06,30.35,30.35,0,0,0-21.88-.06,30.52,30.52,0,0,0-9.5,5.83A30.89,30.89,0,0,0,93.85,105.82Z"/><path class="cls-14" d="M146.64,105.19a.55.55,0,0,1-.06-.18c0-.06,0-.13-.06-.21a.28.28,0,0,1-.12.12s-.05,0,0,.06h0c-.05,0-.07,0-.08.09l0,0h0a1.48,1.48,0,0,1-.68-.17c0-.37-.24-.24-.41-.46-.34-.47-.5-.5-.39-.67a.35.35,0,0,1,.25-.16v0h0l0,.06a.12.12,0,0,0,.08.11l.08.14a.12.12,0,0,0,.06.08l0,.07a.15.15,0,0,0,.07.12.13.13,0,0,0,.08.07.45.45,0,0,1,.2.09.1.1,0,0,0,.07.07h0a.16.16,0,0,0,.12.08.08.08,0,0,0,0,0c.05,0,.11,0,.16,0,.34.19.37-.08.47-.06a18.76,18.76,0,0,0-4-9.74,3.55,3.55,0,0,0-.36-.24c-.2-.13-.23-.16-.22-.11l-.26-.14a.21.21,0,0,0-.11,0,1.12,1.12,0,0,1-.22,0s0,0,0,0-.12-.06-.12,0-.08,0-.19,0a2.61,2.61,0,0,1-.3-.24.28.28,0,0,1,.17,0s0,0,0-.07a1.67,1.67,0,0,0-.57-.37c.12.11.17.19.17.25s.19.17.19.28,0,0-.12,0-.21-.16-.26-.15-.22,0-.3,0,0,0,0,.11.09.13,0,.1a1.93,1.93,0,0,1-.43-.24c-.08-.07-.2-.12-.18-.06s0,.06.07.09.18.07.22.17,0,.06-.12,0-.16-.11-.24-.18a.6.6,0,0,0-.13-.09.24.24,0,0,1-.14-.13c0-.07-.1-.12-.12-.2a.32.32,0,0,0-.16-.2c-.07-.05-.14-.08-.16-.14s.26.11.37.17a6.58,6.58,0,0,0,.73.39c.18.07.48.11.15-.22a.44.44,0,0,0-.11-.09,10.84,10.84,0,0,0-1.34-.9c-.28-.12-.39-.35-.55-.35a1.32,1.32,0,0,1-.19-.08.21.21,0,0,1-.12-.1h.09l0,0c-.23-.18-.4-.24-.56-.36s-.18-.12-.21,0,0,0-.08,0a.08.08,0,0,0-.08,0c-.23-.28-.36-.1-.72-.28l-.05,0c-.1,0,.06.13-.13.06l-.44-.16s-.09,0-.11,0-.17,0-.24.08-.08,0-.09,0-.07,0-.14,0a.13.13,0,0,0-.16,0,.69.69,0,0,0-.25.1s0,0,0,0-.11,0-.08,0,.24,0,.31.14,0,.08,0,.09-.19.1-.3.14a.18.18,0,0,0-.12.22c0,.17-.17.06-.17.13s-.11.11-.15.17a.16.16,0,0,1-.21.06c-.27-.09-.15.12-.4.14s-.14.1-.29.1-.15.14-.15.25a2.18,2.18,0,0,0,.16.47.72.72,0,0,0,.18.32.13.13,0,0,0,.11.13.56.56,0,0,0,.68.13.34.34,0,0,1,.35-.11c.11,0,.13,0,.18.18a1.12,1.12,0,0,0,.2.33c.08.08.14.19.22.27s.05.12,0,.13l-.14,0s-.09,0-.13,0,0,.12,0,.16a.34.34,0,0,1-.08-.29h0a.24.24,0,0,0-.09-.13c-.12-.11,0-.16-.09-.27s-.1,0-.13,0-.11.07-.19.07c-.26,0-.14.35-.08.44s.06.28.11.43,0,.08-.08.08c-.2,0-.37,0-.57,0s-.21,0-.2.22a.12.12,0,0,1,0,.11.9.9,0,0,1-.49.28c-.24,0,0,.3-.29.32s-.09.19-.34.13a.26.26,0,0,1-.15-.07s-.1-.08-.14,0,.12.26-.05.28-.11,0-.16,0-.27,0-.41-.06-.11,0-.1.08a.22.22,0,0,0,.1.19.87.87,0,0,1,.61.4.24.24,0,0,0,.08.09.9.9,0,0,1,.19.78c0,.2-.07.24-.23.23s-.4-.13-.59-.06h0a3.12,3.12,0,0,0-.65-.13.66.66,0,0,0-.48.09c-.07,0-.07.09,0,.18a1.38,1.38,0,0,1,0,1.18c0,.07,0,.16.05.19.23.13.07.45.19.49s.21.11.3,0l.11,0h0c.23.11.18.27.3.36l0,.17a.9.9,0,0,1-.57.74h0c-.13.11-.28.2-.27.46-.24.25-.1.39-.07.66s-.12.28-.24.35a1.29,1.29,0,0,0-.3.27c-.14,0-.42,0-.49.44a.19.19,0,0,1-.13.14c-.09,0-.13.14-.18.24s0,.28-.09.4-.06,0-.07.08,0,0,0,0-.05,0-.05.06-.15.07-.13.21,0,0,0,0a.17.17,0,0,0-.06.16l0,.07s0,0,0,0a.2.2,0,0,1,0,.11.09.09,0,0,0-.07.08l0,.05h0v.08s0,0,0,.07v.19s0,0,0,.07c.17.19,0,.34.11.53a.94.94,0,0,0,.16.23l0,.09c-.06.28,0,.41-.05.58v0c-.07.07-.07.22-.11.53h0s0,0,0,.09v0c-.16.11-.16.13,0,.28l0,0,0,.07a4.33,4.33,0,0,1,0,.72.19.19,0,0,0,0,.15c.1.1.15.3.31.29a.05.05,0,0,1,.05,0c.09.16.24.2.36.31s.22.4.31.61-.11.17,0,.23.13.09.19.12c.39.15.53.46,1.11.91a.3.3,0,0,0,.37,0,1.38,1.38,0,0,1,1.3-.13.17.17,0,0,0,.17,0c.19-.14.4-.13.49-.3l.08,0a0,0,0,0,0,0,0l.08,0a.93.93,0,0,1,.54-.19.41.41,0,0,0,.22,0c.34-.1.39.35.5.53s.15.19.4.1.4-.17.53.09.15,0,.19.26a1,1,0,0,1,0,.52c-.14.31-.05.54-.18.73s-.11.17,0,.35a.27.27,0,0,0,.07.13.38.38,0,0,0,.14.28c.13.14.2.33.32.47a.62.62,0,0,1,.15.37,7.27,7.27,0,0,0,.19.78c.08.3-.15.25-.07.45s0,.24.09.35a.5.5,0,0,1,0,.34,2,2,0,0,1-.11.29c-.26.15-.35.65-.43.85,0,0,0,.09-.05.14l0,.06s0,0-.11.57a.31.31,0,0,0,0,.24,1.7,1.7,0,0,1,.18.46l.06.31c0,.06,0,.11.09.13a.2.2,0,0,0,0,.11.4.4,0,0,1,0,.33,1,1,0,0,0,0,.47.24.24,0,0,1,0,.12,1.71,1.71,0,0,0,0,.64.22.22,0,0,0,.07.2.74.74,0,0,1,.15.26s0,.05,0,.05a1.2,1.2,0,0,0,0,.19.85.85,0,0,0,.09.33.26.26,0,0,1,0,.16,1.1,1.1,0,0,0-.11.47v0s0,0,0,0a.44.44,0,0,1,.18.09.1.1,0,0,0,.12,0,.84.84,0,0,1,.33-.18.31.31,0,0,0,.1-.05.79.79,0,0,1,.46-.21.85.85,0,0,0,.27-.09c.13-.09.26-.15.4-.23s.08-.07.13-.1.39-.39.59-.58c.4-.42.5-.69.72-.87a2,2,0,0,0,.43-.69c0-.07.07-.14.05-.19s0-.11.09-.16.22-.14.46-.32a.63.63,0,0,0,.19-.24,3.87,3.87,0,0,0,.15-.53s0-.09,0-.1,0-.09,0-.13,0-.13,0-.23a2.22,2.22,0,0,1,.4-.41l.09-.1a1.48,1.48,0,0,1,.55-.49.39.39,0,0,0,.14-.12h0a.44.44,0,0,0,.14-.13.34.34,0,0,0,.09-.12.85.85,0,0,0,.24-.32v0s0,0,0,0l0-.07s0,0,0,0a1,1,0,0,1,.05-.38h0l0-.11h0c0-.05,0-.11,0-.16l-.13,0,.13,0a2.61,2.61,0,0,0,.06-.27c.07-.31-.13-.13-.11-.34s-.06-.3.07-.48,0-.3,0-.4.14-.42.31-.88a.16.16,0,0,0,.07-.09l.05-.11c.36-.23.3-.41,1-1.22a1.25,1.25,0,0,0,.23-.23,1,1,0,0,0,.39-.34h0a5.53,5.53,0,0,0,.89-1.5,1.71,1.71,0,0,0,.17-.33c0-.08,0-.2.07-.27s0-.18,0-.34,0-.07,0-.09-.08,0-.1,0-.14.1-.22.13-.21,0-.3.07-.14,0-.21,0-.12.09-.2.1-.09-.07-.31.07-.24,0-.39-.18-.07-.1-.11-.15c.12-.12.13-.19,0-.31v0a5.34,5.34,0,0,1-.43-.5l-.06,0c-.06-.1-.18-.08-.22-.2s.09,0,.1-.1l0-.07s0-.08-.06-.07,0,0,0,.09,0,.11-.08.11a.44.44,0,0,0-.05-.13c0-.13,0-.54-.24-.69a.75.75,0,0,1-.3-.7c0-.17-.1-.31-.12-.48s0-.07-.09-.06-.07-.12-.14-.15a.26.26,0,0,1-.13-.24c0-.07,0-.13,0-.2a3.65,3.65,0,0,1-.3-.55.09.09,0,0,0-.05-.09s0,0,0,0a.15.15,0,0,0,0-.13l0-.08h0c0-.06,0-.18,0-.21v0l-.06,0,.06,0v0a.25.25,0,0,1,.21,0s.09.07.11.13a.29.29,0,0,0,.1.16l0,0s0,0,0,0a0,0,0,0,0,0,0l0,0,0,0a.11.11,0,0,0,0,.09.1.1,0,0,0,0,0,.1.1,0,0,1,0,0l0,.08c0,.08,0,.18.11.21h0c0,.07,0,.18.1.24s.1.12.17.17a.92.92,0,0,1,.28.51c0,.11,0,.23.05.34a.46.46,0,0,0,.19.3c.31.12.28.56.58.84,0,.15-.16.06-.15.2s0,.06.07.09.2.13.17.32a.07.07,0,0,0,0,0c0,.16,0,.26.1.34s0,.26.08.36,0,0,0,0l.06,0a.08.08,0,0,0,.11,0c.1,0,.2-.05.27-.16a.43.43,0,0,1,.22-.06c.17,0,.32-.19.52-.2,0,0,0,0,.06-.07s-.07,0,.63-.28c.19-.08,0-.23.21-.31a1,1,0,0,1,.42-.11c.1,0,.12,0,.12-.15a.2.2,0,0,1,0-.08c.15,0,.22,0,.24-.07A16.73,16.73,0,0,0,146.64,105.19Zm-7.41-11c0-.07.06,0,.09,0s0,0,0,.06,0,.07.07.06.05,0,.26.24,0,.17-.09.07a.74.74,0,0,0-.2-.16A.46.46,0,0,1,139.23,94.18Zm-.62,0c.11.08.24.17.38.29a.19.19,0,0,1,.06.13c0,.16-.14,0-.22,0s-.06,0-.1-.05-.15-.16-.22-.25S138.49,94.14,138.61,94.18Zm-3.68.67s0-.08.08,0a.39.39,0,0,0,.2.06c.24.06,0-.22.33-.12.11,0,.18,0,.27,0s.05-.09,0-.18,0-.08,0-.32,0-.13.08-.12a.56.56,0,0,0,.23,0,.18.18,0,0,0,.08-.09.08.08,0,0,0,0-.09c-.08-.09-.13-.2-.23-.23-.32-.08-.51-.7.17-.74.07,0,.16,0,.2-.08s0-.06,0-.13,0-.11,0-.13a.26.26,0,0,1,.25,0,1.48,1.48,0,0,1,.44.2c.06,0,.07.1,0,.12a1.13,1.13,0,0,1-.38.19c-.08,0-.13.07-.2.1s-.06.09,0,.2c.25.42,0,.36.2.52.43.36.69.29,1.28.38.22,0,.39.23.29.24a.7.7,0,0,1-.37,0c-.12-.05-.23-.07-.35-.11a.44.44,0,0,0-.32,0s-.05,0-.07,0-.15.06-.22.08,0,.1.06.12c.24.09.18-.1.39.08s.16.44,0,.25a.77.77,0,0,0-.32-.21c-.15,0-.16.07-.16.2s.06,0,.06,0,0,.06-.06,0v0h0s0,.09,0,.15l0,.14.05.08-.05-.08a.16.16,0,0,1-.09.09c-.07,0-.09.11-.09.11v0s-.06,0-.09,0-.16-.11-.35-.13h-.08s-.12.06-.12.06.09,0,.12-.06-.19-.1-.2,0h-.08l0,0,0,0s0,0,0,0-.25,0-.36.06-.11,0-.17-.07a.67.67,0,0,1-.09-.14c0-.06-.07-.08-.11-.06a.15.15,0,0,0-.09.07H135c0,.06-.09.07-.09.07s.08,0,.09-.07-.12,0-.14.07h-.05s-.08,0-.09-.11S134.94,95.07,134.93,94.85Zm4.34,4.9h0Zm0,0h0Zm-.05,0h0ZM136.7,95.4a.28.28,0,0,1-.09.08A.19.19,0,0,0,136.7,95.4Zm4.88,6.53c-.07,0-.07.14-.08.24a2.94,2.94,0,0,0-.1.58h0s0,0,0,0l0,0a1.25,1.25,0,0,1-.55-.12.42.42,0,0,0-.55.1.12.12,0,0,1-.13,0c-.14-.07-.29-.09-.44-.17a.67.67,0,0,0-.45-.1c-.12,0-.07-.19-.24-.17s-.19-.08-.28-.09-.05,0-.07-.06c-.13-.25-.54-.19-.71-.07s.1.32-.08.54-.18.13-.32,0c-.4-.36-.77-.15-.86-.55,0,0,0-.1-.08-.11s-.42-.23-.51-.2-.32-.09-.48-.16,0-.21-.23-.18-.12-.07-.12-.17a.39.39,0,0,0,.21-.21c.07-.15,0-.21-.09-.28h0a.07.07,0,0,0,0-.05l0,0c0-.08.06-.12.09-.17s0-.06,0-.1-.06,0-.09,0-.08,0-.13,0-.17-.12-.25-.06-.61-.09-.91.06a.13.13,0,0,1-.16,0c-.33-.2-.62,0-.85,0a.55.55,0,0,0-.44.14c-.07.06-.28.05-.38.19s-.27,0-.86,0l-.1-.09c-.31-.35.23-.47.49-.38a.31.31,0,0,0,.19,0h0s.09,0,.1-.07h0a.5.5,0,0,1,.09-.13h0a.06.06,0,0,0,.07,0h0l.1,0h0s.06,0,0-.08a.54.54,0,0,1,.19-.25c0-.06,0-.08-.06-.11a.2.2,0,0,1,0-.23c.12-.19.21-.44.45-.46a.13.13,0,0,0,.12-.09.32.32,0,0,0,.14,0c.09,0,.11-.09.08-.22s0-.36.24-.3a1.65,1.65,0,0,1,.36.11c.24.13.24-.1.47-.13s.16-.26.41-.12l.11.07a.28.28,0,0,1,.16.19c.09.29.24.32.56.64a.53.53,0,0,0,.23.17,1.24,1.24,0,0,1,.49.35s.07.08.12.1.34.5.09.55-.24,0-.36.06H136a.29.29,0,0,0-.26,0s0,.08,0,.13l.09,0c.13.1.28.14.4.25s.15.1.2,0,0-.1,0-.15,0-.16.1-.14.18-.19.3-.25,0-.11,0-.18a.42.42,0,0,1-.13-.21h0c0-.09.08-.12.19,0s.12.06.17.13.14,0,.07-.1a.52.52,0,0,0-.16-.14,2.85,2.85,0,0,0-.37-.23c-.16-.06-.05-.19-.24-.22l-.16,0c0-.06-.06-.07-.09-.1a.62.62,0,0,1-.2-.27c-.06-.16-.13-.18-.32-.33a.47.47,0,0,1-.14-.42c0-.06.09,0,.18-.06h0l0,0c.07.06.07.17.14.21s.11,0,.18,0a1.32,1.32,0,0,0,.67.67,2.61,2.61,0,0,1,.3.2.6.6,0,0,1,.39.62.24.24,0,0,0,.05.13c.09.1.16.23.26.33a.8.8,0,0,1,.27.45.11.11,0,0,0,.05.09.31.31,0,0,1,.09.19s0,.09.07.09.2.11.31.09,0-.19,0-.23,0-.06,0-.12.21,0,.26-.06-.11-.2-.21-.22-.09-.08-.26-.35c0,0-.05-.08,0-.11s.07,0,.12,0,.12,0,.13-.06,0-.12.05-.09.23,0,.35,0l.14.07h0a.5.5,0,0,1,0,.36c0,.09,0,.1.07.13s.09,0,.07-.06,0,0,0,0c.09.24.09.25-.08.24s0,0-.06,0a.09.09,0,0,0,0,.07s.07,0,.1,0,.08,0,.17.17a.36.36,0,0,1,.07.27.65.65,0,0,1,.53.21.19.19,0,0,0,.3,0s0-.07.09-.06a.58.58,0,0,1,.29.13c.18.16.39.2.51.08s.14,0,.27,0,.15.07.13.19a.55.55,0,0,0,.07.3A.34.34,0,0,1,141.58,101.93Zm.85-1.68h0a1.08,1.08,0,0,1-.43,0,.91.91,0,0,1-.42-.14.43.43,0,0,0-.18-.06,1.18,1.18,0,0,0-.32-.19l0,0c0-.05,0-.08-.09-.07s-.49-.13-.67,0-.23,0-.75-.1a.77.77,0,0,1-.23-.5h0V99h0c.09,0,.14,0,.11-.05a.62.62,0,0,1,0-.31c.09,0,.15,0,.16-.11s.08-.1.17-.25.12-.07.2,0,.3.16.42.21-.11,0-.12.12.21.09.24.26a.09.09,0,0,0,.13.08.78.78,0,0,1,.43,0,0,0,0,0,0,.05,0s0-.06,0-.08-.29,0-.36-.22,0-.1.44-.14c.05,0,.08,0,.13.09.16.23.16.3,0,.32,0,0,0,0,0,0s0,0,0,.08a.37.37,0,0,0,.29.14h-.07c.08.1.29.21.34.27a1.48,1.48,0,0,0,.4.32c.22.15.31.33.22.51l.06.06Zm.09.19a.14.14,0,0,0,.06-.08h0A.14.14,0,0,1,142.52,100.44Zm1.22-.29h-.05l-.05-.21h0c.06,0,0-.13,0-.2-.11-.24-.1-.23.13-.28a.07.07,0,0,1,.07,0c.07.12.19.18.25.3s0,0,.05,0a.16.16,0,0,0,.1.11s.06,0,.09,0c.12.15.17.3.41.42s.1,0,.09.16h0s0,0,0,0l0,.09a.11.11,0,0,0,0,.08.3.3,0,0,1,.1.2l0,.13h0c0,.07.11.12.11.2a.28.28,0,0,0,.09.21.56.56,0,0,1,.07.16c.09.25.09.24-.1.28a.56.56,0,0,1-.43-.19.6.6,0,0,0-.23-.15.19.19,0,0,1-.12-.1c-.19-.36.09-.2-.07-.51,0,0,0-.1,0-.06h.13s0-.08,0-.09l-.15-.06-.06,0a.6.6,0,0,1-.06-.11l0-.06,0,0c0-.07-.09-.1-.13-.15A1.94,1.94,0,0,1,143.74,100.15Z"/><path class="cls-15" d="M139.36,99.59a.23.23,0,0,0,0,0h0A.23.23,0,0,1,139.36,99.59Z"/><path class="cls-16" d="M125.35,89.19s0-.09,0-.14.05-.13.13-.1.11.22.41.25c.11,0,.17,0,.32,0s.05,0,0,0-.06-.34-.24-.39a.29.29,0,0,0,.07-.38c.09,0,.16-.08.25,0s.13,0,.15-.08.24,0,.41-.24.1,0,.2,0,0-.06,0-.09a.4.4,0,0,0-.31-.08s0,0,0,.08.06,0,0,.1a.3.3,0,0,1-.16,0,.06.06,0,0,1-.06,0,.06.06,0,0,1,0,0c.07-.07.07-.08,0-.18l0,0h0l0,0a.29.29,0,0,0-.11-.19s0-.1,0-.09.12,0,.18,0,.08.15.17.18c-.14-.17.06-.18,0-.34h0l-.15,0c0-.34.13-.3.26-.41a.07.07,0,0,0,0-.1c-.09,0-.1,0-.15.1s-.14,0-.11-.1,0-.1.06-.07.16-.19.28-.17h.06c.12,0,.05-.12.23-.09s.24-.06.37-.06l0,0c.16,0,.2,0,.27,0a.75.75,0,0,0-.38-.12.25.25,0,0,0-.14-.06c-.17,0-.58-.1-.66,0h0c-.07,0-.15.06-.23,0h-.06c-.06,0-.13,0-.19,0s-.08,0-.11-.06.08,0,.1,0a.31.31,0,0,0-.19-.09c-.08,0,0,.09,0,.11l-.12.07s-.06,0-.06,0l0,0h0s0,0,0-.05a.18.18,0,0,0,0-.14l0,0c0-.08.09-.06.13-.09s0,0,0,0c-.58-.17-.74-.05-.86-.2s-.15-.1-.24-.07a.32.32,0,0,1-.14,0,.53.53,0,0,0-.41,0l-.33,0a10.52,10.52,0,0,0-2,.19l-.26.06a4,4,0,0,0-1.13.2s-.1,0-.1.1l-.07,0c-.06-.09-.13-.11-.19,0a1.15,1.15,0,0,1-.19.14h-.14s0-.06,0-.06,0,0,0,.07l-.15,0s-.07.07,0,0,0,0,0,0,0,.06-.08.09h-.09s0,0,0,0h0s-.21-.06-.38.09c0,0,0,0,0,0s-.27,0-.92.23c-.06,0-.07,0-.19.08h0c-.22.06-.24.09-.25,0s0-.05,0-.06-.34.13-.45,0h0c-.22.05-.44.14-.65.19a12.55,12.55,0,0,0-2.82,1.28c-.26.31-.47.17-.83.52a.53.53,0,0,1-.14.1,2.91,2.91,0,0,0-.48.29l-.17.12a1.29,1.29,0,0,0-.17.13s.06,0,.11-.05.07,0,.12,0,.11,0,.19-.06,0,.1-.13.16,0-.06,0,0,0,0-.07,0-.16.07-.21,0a.43.43,0,0,0-.21.07,3.52,3.52,0,0,0-.43.31h0c-.11.13-.21.21-.34.35a.15.15,0,0,1,.18,0h0c.09,0,.16-.07.2,0s.59-.23.68-.27a1.55,1.55,0,0,0,.4-.28.21.21,0,0,1-.12.19l0,0c0,.07.06,0,0,.08s-.09,0-.15.12h0a2.08,2.08,0,0,1-.33.2s-.11.1-.16.12c-.23.08-.34.21-.43.2s-.06,0-.13.06l-.08,0h0a1.17,1.17,0,0,0-.39.24s.09,0,.11,0,0,0,0,0h0s.09,0,0,.1-.15.1-.21.12-.08,0-.14.07l-.05.06c.06,0,0,.08.05.07s.06,0,.07,0,.06,0,.11-.09a.55.55,0,0,0,.18-.08s0,0,.07,0a.4.4,0,0,0,.12-.11c.06-.13,0-.12-.08-.07v0h0a.33.33,0,0,1,.13-.17.53.53,0,0,1,.19-.09h0s0,0,0,.09,0,.07,0,.08,0,.09.08.06a2.23,2.23,0,0,0,.51-.26s.06,0,.07,0,.13,0,.48-.18c.13-.07.26-.11.4-.18s.12-.1.15-.1a1.49,1.49,0,0,0,.45-.15.3.3,0,0,0,.19-.16.06.06,0,0,1,.05,0s.06,0,.08-.08,0,0,0,0a1.17,1.17,0,0,0-.65.2,3.82,3.82,0,0,0-.52.28c-.18.1-.32.13-.49.21h0s0,0,0,0l-.06.07h0s0-.07,0-.06h0c.27-.29.29-.18.41-.26s.42-.12.64-.32a.23.23,0,0,1,.09,0,3.52,3.52,0,0,0,.35-.16c.08,0,.2-.12.2,0l.07,0c.08,0,.18-.1.25-.12s-.07.08-.08.12.07,0,.1-.12,0,0,.06-.08.12,0,.2-.11,0,0,.06-.07-.13,0-.18.05.06-.1.1-.14a.19.19,0,0,0,.13-.09c.11-.17.17-.11.3-.2a.27.27,0,0,0,.17-.07,2,2,0,0,1,.36-.3s0,0,0-.07a.14.14,0,0,1,.09-.12c.11,0,.24-.15.36-.18s.21-.09.45-.31l.06,0s0,0,0,0a1.09,1.09,0,0,1,.17-.13c.24-.12.5-.29.74-.39.06,0,.12,0,.17-.14l.06,0a.16.16,0,0,0,.1,0l.09,0c.07,0,.17-.09.25-.11s.07,0,.07,0,0,0-.06.06,0,0,0,0c0,.25,0,.08-.45.26-.16.07-.34.21-.5.28a.43.43,0,0,0-.2.12s0,0,0,.06.1,0,.38-.06c0,0,.1,0,.11,0s-.08.08-.11.13a8.41,8.41,0,0,0-.82.35.2.2,0,0,1-.09,0c-.18.08-.35.18-.53.28a.26.26,0,0,0-.09.09c0,.06,0,0,.05,0s0,0,.07,0l.12,0s.11,0,.16,0a.35.35,0,0,0-.16.16s0,0,0,0c.3.08.33.11.41.07a.87.87,0,0,0,.52-.15s0,0,.06,0,.18,0,.28-.08,0,0,.08,0,.14-.12.27-.1a3.17,3.17,0,0,1,.47,0c.11.07.28,0,.36.15h0a.37.37,0,0,1,.29.24.91.91,0,0,1,.17.48c0,.06,0,.12,0,.12a.37.37,0,0,0,.39-.08c.14-.13.09.19.24.08a.11.11,0,0,1,.09,0s-.07,0-.09,0,0,0,0,0,0,.08,0,.11-.12,0-.28,0-.15,0-.15.14c0,0,0,0,0,0s-.08.09-.09.15,0,.08.07.1a.55.55,0,0,0,.46-.05.15.15,0,0,0,.1-.06c0-.06,0-.07,0-.11l0,0,.14,0c0,.06,0,.11,0,.16a.21.21,0,0,1-.15.26c-.15,0-.3,0-.44.23s-.05.32-.07.42c-.08.37.28.28.26.53s.15.2.15.36,0,0,0,0a.76.76,0,0,1,.23.21c0,.08.05.07.1.06.06.27.22.26.32.39s.15,0,.59.06c0,0,.09,0,.12.06s.25.13.39.13a.16.16,0,0,0,.16-.09s0-.1,0-.15l0,0s0,0,.05,0c.09-.27.23-.3.21-.51s.2-.18.3-.38a.09.09,0,0,0,.06,0s.08,0,.07-.07.11-.19.08-.31,0-.05.06-.07c.2-.13.3-.24.56-.23s.47-.17.69-.22a.36.36,0,0,0,.25-.2l0,0s0,0,0,0,.07,0,.09-.07.07-.1.11-.12a1.33,1.33,0,0,0,.21-.09s.08-.06.12,0a5.21,5.21,0,0,0,1-.14,1.14,1.14,0,0,0,.51-.13,2.74,2.74,0,0,1,.67-.26A6.43,6.43,0,0,0,125.35,89.19Zm1.17-2.44v0l0,0Zm0,.31Zm-.08.78a0,0,0,0,1,0,0h0a0,0,0,0,1,0,0A0,0,0,0,1,126.49,87.84Zm-.16-1-.12.14ZM126.2,88h0a.2.2,0,0,0,0-.05A.2.2,0,0,1,126.2,88Zm-.18-.56h0Zm0-.06,0,.06Zm-.22.7h0Zm-.09.11h0ZM111.45,90Zm.32-.11-.07,0,.07,0,0,0Zm0-.13h0l.06,0Zm-.78.87h0l0,0Zm1.24-.74.14-.1h0Zm.21-.24-.08,0s0-.06,0-.08.08,0,.14,0l0-.08,0,.08v0h0v.08C112.54,89.72,112.55,89.65,112.49,89.69Zm.22-.52a.3.3,0,0,1,.09,0l0,0,0,0A.3.3,0,0,0,112.71,89.17Zm0,0s0,.05,0,.06-.11.11-.11.09-.12,0-.18,0l0,0,0,0s0,0,0-.06l.11-.09h0l0,0a.13.13,0,0,1,.15,0Zm.14.46h0Zm.37-.52.1-.12-.1.12Zm-.22.29Zm.13-.16a.38.38,0,0,1-.05.08.38.38,0,0,0,.05-.08.08.08,0,0,1,0,0A.08.08,0,0,0,113.12,89.2Zm.12-.12a0,0,0,0,1,0,0,0,0,0,0,0,0,0h0Zm0,.25Zm.93-1.06-.08,0,.08,0a1.92,1.92,0,0,1,.21-.15A1.92,1.92,0,0,0,114.12,88.27Zm1.31.36.54-.19Zm.92-.44h0Zm2,.48,0-.1,0,.1Zm.14.19Zm.1.06h0Zm.44-2.43-.08,0,0,0a.13.13,0,0,0,0-.07c.06,0,.08,0,.07,0Zm-.18,3.17s.09,0,.07,0S118.87,89.7,118.86,89.66Zm.8-3.4h0Zm-.74,4.43Zm.47-.7Zm.11.58h0S119.47,90.53,119.5,90.57Zm0-.67Zm0-.18Zm0,.07h0ZM119.34,91l.13.14Zm1.55,1.4s0-.08,0-.08,0,.05,0,.08Zm3.66-3.67a0,0,0,0,0,0,0h0A0,0,0,0,1,124.55,88.73Zm.19.16s-.06,0-.06,0,0,0,.06,0Zm.73-.29Zm-.55-.35h0a.07.07,0,0,0,0,0A.07.07,0,0,1,124.92,88.25Zm0,.81A.31.31,0,0,0,125,89h0A.31.31,0,0,1,124.9,89.06Zm-.06-.17h0l.14,0h0l.18,0A.83.83,0,0,0,124.84,88.89Zm.37-.37,0,0h0ZM124.93,86a1.79,1.79,0,0,0,.27,0s0,0,0,0,0,0,0,0A1.79,1.79,0,0,1,124.93,86Zm.53,2.79s.1-.07.1-.07-.08,0-.1.07-.15,0-.15,0S125.4,88.87,125.46,88.82Z"/><path class="cls-17" d="M122.82,115.05c-.1-.42-.3-.16-.49-.3-.48-.34-.22-.28-.82-.71a.26.26,0,0,0-.21-.06,1.15,1.15,0,0,1-.37,0,.46.46,0,0,0-.22-.06.22.22,0,0,0-.21-.1h0c-.38,0-.22-.32-.45-.38a.76.76,0,0,1-.18-.09c-.42-.23-.57-.15-.75-.34a4.23,4.23,0,0,0-.23-.53.49.49,0,0,0-.3-.3.12.12,0,0,0-.06-.06c-.06,0-.08-.09-.12-.14a.45.45,0,0,1-.07-.23.52.52,0,0,0-.24-.46c-.6-.5-.82-.62-1.11-.5s-.73-.47-.9-.7-.11-.13-.19-.12a1.59,1.59,0,0,0-.5-.5v-.07h0c.13,0,.12-.22,0-.22s-.07.09-.08.16-.11.11-.19.08l0,0c0-.1,0-.18-.11-.19s-.18,0-.26-.06-.1-.06-.12.1l-.12.09c-.3.21-.27-.23-.71-.1a.23.23,0,0,1-.29-.09c0-.18-.07-.22-.25-.23a.1.1,0,0,0-.09,0h0a.56.56,0,0,1-.07-.18c0-.07-.1-.08-.11,0s0,.13,0,.18h0l-.11,0c0-.11,0-.25-.1-.33s-.15-.08-.21,0c-.47.59-.9.19-1,.74,0,0,0,.14,0,.15s-.16.21-.26.3-.12,0-.3-.17c-.46-.45-.74.34-1,0-.13-.16-.54-.43-.43-.9a3,3,0,0,0,0-.61s.07-.1.11-.14,0-.41-.23-.4c0-.09,0-.1-.1-.13a.07.07,0,0,0-.07-.06.78.78,0,0,0-.34,0c-.18.09-.37,0-.55.06s-.11-.08-.06-.16a.31.31,0,0,0,.07-.18c0-.2.1-.38.14-.57s.07-.16.07-.25c0-.45.27-.36.18-.64,0-.08-.09,0-.15-.06a1.46,1.46,0,0,0-.57.12c-.51.15-.18.62-.58.75s-.52.29-.65.21-.4-.18-.46-.48a.67.67,0,0,1-.16-.42.06.06,0,0,0,0-.06c-.12-.22,0-.48,0-.62a.9.9,0,0,1,.1-.39.69.69,0,0,0,.08-.56.39.39,0,0,1,0-.21c.42-.45.4-.24.73-.63l.07,0c.26-.05.25,0,.33,0s.05,0,.12,0h0s.07,0,.11,0h0s0,.06,0,.06c.09.18.33-.09.48,0s.09,0,.09-.09,0,0,0-.08,0-.15.12-.18a1.37,1.37,0,0,1,.33-.07c.06,0,.11,0,.16-.05a.36.36,0,0,1,.31.11c.15.21.26-.1.39,0a.48.48,0,0,1,.21.53c0,.21,0,.24.23.7,0,.17-.05.39-.26.43,0,0,0,0,0,.06a1.09,1.09,0,0,0,.4,0,.2.2,0,0,0,.14-.14l0,0,0,0,0,0s.05,0,.05-.08a1.17,1.17,0,0,0,0-.69,3.77,3.77,0,0,0-.16-.6,1.29,1.29,0,0,1,0-.21.53.53,0,0,1,.06-.37.83.83,0,0,1,.3-.38,2,2,0,0,0,.44-.47c.1,0,.2,0,.27-.14s.09-.11.13-.11.25-.17.38-.25a.23.23,0,0,0,.09-.21c0-.11-.16-.21,0-.43s.28-.6.49-.86a.5.5,0,0,0,0-.13.2.2,0,0,1,.11-.13c.14-.09.32,0,.42-.27l.07,0c.31-.12.44,0,.47-.13s0-.07-.06-.08c-.22,0-.06-.47.13-.58a4.32,4.32,0,0,0,.8-.45.71.71,0,0,1,.45-.16c0,.08-.11.11-.16.16a.3.3,0,0,0-.1.26c0,.09.08.07.14.07.24,0,.32-.34.52-.34,0,0,.07,0,.11,0a4.39,4.39,0,0,0,.76-.42c.16-.1.1-.1,0-.29s-.06-.14-.37.24c-.06.06-.16,0-.12-.05s0-.13-.06-.11a.32.32,0,0,1-.34-.07c-.12-.1-.11.11-.18.14a.34.34,0,0,1,.06-.42c-.13,0-.26.07-.36,0a.47.47,0,0,0,.34-.13s.11-.07.11-.15a.11.11,0,0,0-.11-.14h-.08a1.84,1.84,0,0,0-.94.38s-.09.09-.14.05c.25-.42.48-.27.59-.47a.41.41,0,0,1,.27-.22c.92-.26,1.34,0,1.78-.39a1,1,0,0,1,.61-.28.16.16,0,0,1,0,.11,4.14,4.14,0,0,0-.34.48c-.32.48-.43.54-.39.66s.08,0,.13,0a.93.93,0,0,1,.23,0c.15,0,.29,0,.44,0s0,.27.19.18.22-.2.28-.1.13.07.19.12.16,0,.27-.2,0-.11,0-.14,0-.2-.08-.25A.6.6,0,0,1,118,96c-.07-.25-.4.15-.56-.17h0c-.07-.06-.08-.11,0-.19a.57.57,0,0,0,.13-.21s0-.07,0-.08,0-.09,0-.16c.1-.3,0-.46-.18-.5a.18.18,0,0,1-.14-.14c-.06-.25-.26-.09-.33-.14s-.3-.1-.42-.23-.09-.08-.09-.17,0-.14-.06-.16l0,0c0-.07,0-.14-.09-.13s-.11-.09-.13-.17-.29-.34-.31-.52-.06-.06-.1,0a1.31,1.31,0,0,0-.2.28.52.52,0,0,1-.19.22c-.41.34-.49.13-.59.09s-.2-.2-.09-.47c0-.08,0-.08,0-.07-.23,0-.36,0-.4,0s-.19-.14-.31-.19a.18.18,0,0,0-.17,0,1.23,1.23,0,0,1-.56.12c-.19,0-.45.1-.37.28s0,.07,0,.12c-.17.21.07.25-.05.41-.29.38-.36.36-.2.44l.07,0c.15,0,.19.23.15.42a1.47,1.47,0,0,1-.72.61c-.21.09,0,.22-.05.32a1.66,1.66,0,0,0,0,.32.15.15,0,0,1-.09.17c-.07,0-.11.08-.16.14s-.16.12-.21.05-.05-.11-.13-.1,0,0,0-.06a.1.1,0,0,1,.11-.07.11.11,0,0,0,.08-.17c-.09-.09-.35,0-.24-.31,0-.2,0-.25-.11-.23a1,1,0,0,0-.33.1c-.22.11-.24-.09-.49,0l-.06,0a.52.52,0,0,0-.51-.12c-.06,0-.1-.08-.35,0s-.2-.14-.21-.19-.1-.07-.23,0,0-.32.13-.47a.89.89,0,0,0,.21-.26h0a3.4,3.4,0,0,1,.29-.26c.12-.09.25-.24.37-.27s.21-.34.46-.41a1.31,1.31,0,0,0,.47-.33.43.43,0,0,0,.14-.19s0-.06.06-.08l.16-.12s0,.11-.06.17a.69.69,0,0,1-.27.36l0,0c-.07.08-.07.13,0,.11a.77.77,0,0,0,.17-.07s.08,0,.09,0h0c0,.07,0,0,.12,0s.07,0,.11-.08h0c.24-.11.28-.31.45-.26a.7.7,0,0,0,.25,0,.24.24,0,0,0,.13,0s.09,0,.1-.11-.11,0-.21,0,0-.13-.06-.12-.21,0-.34,0-.1,0-.08-.09.06,0,.09,0a.13.13,0,0,0,.12,0c.06-.06,0-.09,0-.14h0s0,0,0,0,.18-.16.28-.23c.58-.38,0-.25.25-.46s.17-.18.11-.27a.44.44,0,0,1-.11.12.44.44,0,0,0,.11-.12h0s0,0,0,0a.19.19,0,0,1-.12,0c.21-.35.35,0,.68-.3,0,0,0,0,0,0s-.08.14-.15.18-.17.09-.19.14,0,0,0,0c.17,0,.11.11.25,0s0-.22.26-.41l.05,0c0-.07.09,0,0,0s.15.12-.05.29a.19.19,0,0,0-.08.18c0,.05,0,.08.06.08a.32.32,0,0,0,.16,0,.61.61,0,0,0,.31-.12c.1-.06.43-.23.41-.12a.12.12,0,0,1,0,.08,1.18,1.18,0,0,1-.21.18c-.14.09-.27.25-.42.29a.33.33,0,0,1-.26.18.71.71,0,0,0-.3.23c-.06.06-.07.13,0,.14a.47.47,0,0,0,.34,0,.8.8,0,0,1,.95,0c.06.05.14.06.19.13s.06,0,.09,0a.22.22,0,0,1,.23,0,.15.15,0,0,0,.13,0h0s0,0,0,0a4.24,4.24,0,0,1,.61,0c0-.1,0-.19-.11-.14a.48.48,0,0,0-.31-.15c0-.09.09-.1.15-.12.34.12.28,0,.42.12s.07.07.19,0c-.11,0-.1,0-.08-.11a.19.19,0,0,1,.1-.14A.09.09,0,0,0,116,92c0-.06,0-.06-.09-.05l0,0c0-.1,0-.14-.08-.12l0,0s0,0,0,0v0h0l-.14,0c0-.15-.23-.13-.14-.39.38-.17.35.22.73.17v0c.06,0,.1,0,.11-.11a.28.28,0,0,1,.15-.08c.15,0,.23-.23.34-.34a.06.06,0,0,0,0,0s0,0-.08,0,0,0-.08,0a.93.93,0,0,0-.37-.06.27.27,0,0,0-.27-.08c-.16,0-.26,0-.39-.06s0,0,0-.07.12-.07.17-.15-.07,0-.06-.1,0-.13-.12-.13-.07,0-.07,0-.07,0-.13,0l0,0h0s-.12,0-.17,0-.08,0-.1,0-.14,0-.2-.09a.39.39,0,0,0-.21,0,.35.35,0,0,1-.33,0c-.1,0-.14-.06-.24,0s0,0-.07,0h0c.06-.09.07-.11,0-.11h-.13c-.11-.06-.25,0-.49.1a.2.2,0,0,0-.19,0h0l0,0c-.11.09-.21,0-.42.16l-.33.18c-.05-.11-.18,0-.34.07s-.2,0-.31.17a2.19,2.19,0,0,0-.47.45.5.5,0,0,0-.1.17c-.09.16,0,.16,0,.22s.15,0,.25,0,.13.06.28-.08a.22.22,0,0,0,.13,0c0,.11-.07.21-.11.31a1.28,1.28,0,0,1-.2.26h0s0,0,0,0a.13.13,0,0,0-.06.1s0,0,0,.1a.17.17,0,0,1-.11.07c-.06,0-.08,0-.12,0s0,0,0-.12,0-.19-.1-.2-.06,0-.1.06,0-.08-.22,0c0,0-.13,0-.08-.08h0c0-.08,0-.06-.13,0,.1-.21-.11-.1-.11-.17s.12-.1.16-.17a.36.36,0,0,1,.13-.12.56.56,0,0,0,.27-.17.17.17,0,0,0,.06-.06l.1-.1s0,0,.06,0l.13-.13c-.1,0-.23.1-.38.15a2.33,2.33,0,0,0-.47.24.79.79,0,0,0-.21.23c0,.07-.14.16-.06.12s0,0,0,0A.48.48,0,0,1,110,92a.4.4,0,0,0-.13.13l-.08,0h0a.26.26,0,0,0,0,.1c0,.09-.12.19-.07.23s-.13.08-.15,0-.14,0-.23.12a1.23,1.23,0,0,1-.25.22l0,0s0,0,.18,0a.65.65,0,0,0-.17.2c0,.09-.23.1-.49.26s-.23.08-.47.2c0,0-.07,0-.09,0s-.12,0-.17,0-.3.18-.48.28c0,0,0,0,0,0s-.09.09-.07.1,0,0,0,.06-.06.06-.12.1l0,0c0-.08,0-.08-.06,0s0,0,0,0,0,0-.12,0l0,0-.06.05a5.05,5.05,0,0,1-.73.43,3.08,3.08,0,0,0,.27-.24c-.11,0-.27.12-.45.24a18.78,18.78,0,0,0-3.74,8.35s0,.06,0,.08c.19.54.11.58.21.63a.37.37,0,0,1,.17.16.14.14,0,0,1,0,.16.21.21,0,0,1-.16.12,0,0,0,0,0,0,0,.32.32,0,0,0,.23.22.48.48,0,0,1,.22.12c.21.16-.06.3.08.42s.3.18.37.38c0,0,0,.09.08.05s.12-.09.09-.16,0-.19-.12-.2-.14-.07-.12-.2a0,0,0,0,0,0,0,.55.55,0,0,1-.1-.31c0-.17-.24-.29-.25-.53,0,0,0,0,0,0,0-.18,0-.23-.13-.21s-.14-.17-.09-.51c.07,0,.13,0,.22,0s.06,0,.12.17h0c0,.15.11.23,0,.42a0,0,0,0,0,0,0c.09,0,.09.12.2.16s.1.05.11.11.12.2.21.26-.08.21.08.3l.14.06h0l0,0a.28.28,0,0,0,.13.17.17.17,0,0,0,0-.07.17.17,0,0,1,0,.07,4.15,4.15,0,0,1,.27.41c.34.59-.06.67.16.94s.22.11.34.29a.23.23,0,0,0,.1.07,4.87,4.87,0,0,1,.6.31,7.67,7.67,0,0,0,.77.36c.61.27.42-.62,1.23.4.25.31.31.12.71.36a.55.55,0,0,0,.4.06c.05,0,.05.15.13.17a1.38,1.38,0,0,0,.26.36c.27.27,0,.44.24.58s.36.07.41.27c.08.36.49.2.57.38s.14.12.2.19.11,0,.16,0,0-.09,0-.14,0-.14.18-.33a.06.06,0,0,1,.09,0c.06,0,.14.09.16.19.07.33.26.44.31.7s0,.26,0,.39-.06.3,0,.45a.06.06,0,0,1,0,0c0,.1-.07.24-.19.26s-.07.51-.35.53a.1.1,0,0,0-.11.11,1.47,1.47,0,0,1-.12.49,2.16,2.16,0,0,0,0,.44,0,0,0,0,0,0,0c.09,0,.15.19.26.21l0,.09a.32.32,0,0,0-.22.29h0c-.09,0,0,.08,0,.17a3,3,0,0,1,.1.32c-.13.09.28.22.39.56a.42.42,0,0,0,.07.13,3.06,3.06,0,0,1,.35.64c.47,1,.66,1,.65,1.33,0,0,0,0,0,.07s0,0,0,0a.07.07,0,0,0,0,0c.08.14.2.22.29.35a2,2,0,0,0,.45.33.26.26,0,0,0,.14.1,2.54,2.54,0,0,1,.62.58s.06.07.1.1h0s0,0,0,0a.92.92,0,0,0,.08.32c.1.7.15.87.06,1.06,0,0,0,.07,0,.11a4,4,0,0,1,.1,1.27c0,.1,0,.22,0,.3a.11.11,0,0,0,0,.1,1,1,0,0,1,.07.15l.08,0-.08,0s0,.06,0,.08,0,.27,0,.43a2.63,2.63,0,0,1,.06.91s0,.06,0,.07,0,.1,0,.16,0,.29-.09.33,0,.09,0,.16a1.15,1.15,0,0,1,.17.7s0,.06,0,.08a3.08,3.08,0,0,1,.06.65c0,.08.18.18.19.1a.39.39,0,0,0,0-.26s0-.06,0-.06,0,0,.06.06a.34.34,0,0,1,0,.16c0,.06,0,.12.07.19v0a0,0,0,0,0,0,.05c0,.19-.33-.22-.21.18a.34.34,0,0,1,0,.37s0,.07,0,.11.1-.08.21.14c0,0,0,0,0,0l0,.06s0,0,0,.06h0c-.19-.09-.2-.08-.14.12,0,0,0,.06,0,.11a1.65,1.65,0,0,1,.14.36c0,.11.18.15.13.26a.17.17,0,0,0,0,.1,3,3,0,0,0,.47.61l.07.07a.54.54,0,0,0,.31.25.6.6,0,0,0,.26.23,2.2,2.2,0,0,1,.32.21c.08.11.09.05.12,0l0,0c.09.16.18,0,.53.09,0,0,0,0,0,0a.13.13,0,0,0-.07-.09c-.3-.25-.46-.37-.51-.56s-.13-.19-.29-.46.15-.11.12-.41.16-.15.26-.25a.3.3,0,0,0-.18-.39l-.23-.07c-.06-.06-.14-.08-.16-.24.07,0,.07-.07.06-.14h0c.14,0,.2,0,.23,0s.07,0,.06-.06,0-.18,0-.29h0a.13.13,0,0,1,0-.07c.09,0,.15,0,.24,0s0-.36-.14-.29-.13,0-.21,0l0-.21c0-.12,0-.12.12-.06s.1.08.14.06c.2,0,.47.16.44-.23,0-.14,0-.2.15-.19h.15a.05.05,0,0,0,.06-.06c.22,0,.32.06.37-.07h0a.57.57,0,0,0,.23-.36.2.2,0,0,0,0-.13.53.53,0,0,1,0-.39c.08,0,.15-.09.25,0s.48-.28.6-.48a1.19,1.19,0,0,0,.12-.32s.12-.06.16-.14.12,0,.12-.14h0c.1,0,.1-.18.11-.3a2.35,2.35,0,0,1,.23-.32c.29-.31-.09-.77.16-1.06a1.58,1.58,0,0,1,.3-.28c.36-.29.3,0,.46-.23a.45.45,0,0,1,.26-.19,2.17,2.17,0,0,0,.44,0,.11.11,0,0,0,.12-.08c0-.2.28-.07.24-.31a.54.54,0,0,1,.06-.25c.08,0,.08-.13.09-.21a.22.22,0,0,0,.12-.2h0c.13,0,0-.37.17-.48a.12.12,0,0,0,0-.18c-.11-.3.09-.48,0-.73a2.22,2.22,0,0,1,0-.63c0-.19.2-.1.2-.3h0a.42.42,0,0,0,.17-.34h0a.07.07,0,0,0,.06-.08.22.22,0,0,0,.08-.14s.06,0,.07-.08.07,0,.27-.34h0c.06,0,.08-.06.11-.11A1.36,1.36,0,0,0,122.82,115.05Zm-5.49-19.69s.06,0,.06,0,0,0,0,0h-.06A.21.21,0,0,1,117.33,95.36Zm-6,3.24a.84.84,0,0,1,.31-.16,1.4,1.4,0,0,0,.39-.1c.07,0,.11,0,.1.09l-.09.13a.41.41,0,0,1-.29.07c-.26,0-.48.15-.47,0Zm0,.28a.1.1,0,0,0,0,0,.1.1,0,0,1,0,0c-.13.14-.29.17-.43.3l-.06,0,.06,0a.21.21,0,0,0-.12,0h0c-.12,0-.2.16-.38.13s-.06-.08,0-.13a.31.31,0,0,1,.12-.09c.19-.08.16-.17.27-.17C111.13,99,111.35,98.71,111.38,98.88Zm-.69-.92s.08,0,.06.08.07.1.15,0S111,98,111,98s.1,0,.14.08a.23.23,0,0,1,0,.32c-.07,0-.12,0-.17,0l-.13.1a.45.45,0,0,0-.12.21c0,.16-.12.23-.18.23s.06-.27-.14-.23c0,0-.06,0,0-.09.08-.32,0-.24-.16-.34A.62.62,0,0,1,110.69,98Zm-.68.41h0a.24.24,0,0,0-.2.15.59.59,0,0,0-.14.48.57.57,0,0,1-.22.44c-.11.07-.19,0-.18-.14a1.63,1.63,0,0,1,.18-.65s0-.05,0-.05a.52.52,0,0,1,.21-.31,1.19,1.19,0,0,1,.37-.16c.1,0,.1,0,.09.12Zm-1.31-.22c.12-.23.29-.24.54-.44a1.14,1.14,0,0,1,.67-.3c.11,0,0,.21.22.19,0,0,.1,0,.1,0s.06.15,0,.26,0,.09-.07.07-.21,0-.31,0-.29,0-.4,0,0-.08,0-.12a.85.85,0,0,0-.22.13,1.58,1.58,0,0,1-.24.15s-.09.05-.12,0-.13,0-.2,0l0,0h0Zm6.61-5.63Zm-.31-.39a.92.92,0,0,0,.2,0,.92.92,0,0,1-.2,0l-.06.07h0l.06-.07s-.1-.08-.1-.08S115,92.08,115,92.13Zm-.44-.6c.1-.18.11-.2.19-.11s.14,0,.21,0a.27.27,0,0,1-.2.11l-.2.05v-.09Zm.06.42a.07.07,0,0,1,0,0l-.08,0h0c-.07,0-.12,0-.1,0S114.59,91.84,114.62,92Zm-1.29-1s.11,0,.1.07l-.14,0C113.22,91.09,113.25,90.94,113.33,91Zm-1.86,1.53s.12,0,.1,0-.18.12-.2,0v0A.18.18,0,0,1,111.47,92.48Zm6.13,32.62,0-.09Z"/><path class="cls-18" d="M107.85,103.08s0,0,0,0a.22.22,0,0,0,0-.06.22.22,0,0,1,0,.06S107.85,103.08,107.85,103.08Z"/><path class="cls-19" d="M116.11,91.47v0Z"/><path class="cls-20" d="M115.15,92.39l-.06,0h0Z"/><path class="cls-21" d="M113.2,90.31l-.06,0Z"/><path class="cls-22" d="M112.75,90.39l0,0h0Z"/><path class="cls-23" d="M112.16,90.68Z"/><polygon class="cls-24" points="106.24 107.07 106.24 107.07 106.24 107.06 106.24 107.07"/><path class="cls-25" d="M110.72,114.65h0Z"/><path class="cls-26" d="M114.61,125.94s0,0,0,0,0,0,0,0Z"/><path class="cls-27" d="M114.65,126.06h0Z"/><path class="cls-28" d="M116.35,129.17a.08.08,0,0,1,0,.05.08.08,0,0,0,0-.05S116.33,129.13,116.35,129.17Z"/><path class="cls-29" d="M115.9,126.66h0a.17.17,0,0,1,0-.09A.17.17,0,0,0,115.9,126.66Z"/><path class="cls-30" d="M117.67,124.4v0h0Z"/><path class="cls-31" d="M108.6,92.94c-.1,0-.21.11-.23,0s.07-.09,0-.1,0-.07,0-.09a1.37,1.37,0,0,1,.2-.23.45.45,0,0,0,.07-.07h0s0,0,0,0a1.21,1.21,0,0,0-.4.25c-.1.12-.18.18-.18.14s0,0,0,0a.28.28,0,0,0-.12.24s-.07.11-.08.08-.07,0,0-.08,0,0,0,0-.27.09-.32.18a.4.4,0,0,1-.13.13h0c0-.06,0,0-.1,0a1.59,1.59,0,0,0-.34.26c.08-.12.07-.13,0,0s-.08.08-.07,0-.09,0-.13.06l0,0c-.19.23-.28.34-.45.58v0l0,0-.12.16.25-.17.1-.08,0,0c.09,0,.23-.15.34-.2l.09-.06a.41.41,0,0,1-.12.09c-.14.1-.58.38-.74.52l-.07.09h0c.09,0,.09,0,.51-.29,0,.09,0,.12,0,.07s.4-.24.63-.41l0,0s.14-.12.2-.14l.23-.17c.26-.23.34-.16.39-.18.54-.28.54-.28.58-.34s0,0,0,0v0a.71.71,0,0,1,.18-.07s.06,0,.1-.07S108.68,93,108.6,92.94Z"/><path class="cls-32" d="M107.88,93.34Z"/><path class="cls-33" d="M107.8,93.43h0l0,0Z"/><path class="cls-34" d="M111.83,106c.06,0,.13,0,.15,0s0-.06,0-.08-.19-.12-.3-.11c0-.26-.35,0-.51-.47h.49c-.07-.2-.07-.2.07-.34h0s.07,0,.08,0,0-.15,0-.13-.15-.07-.23-.11-.08-.16-.09-.24,0,0,.08,0,0-.34-.15-.17-.11,0-.13.1,0,.12,0,.19,0,0,0,0,0,.1.11.1l.09,0,0,.12c-.2.11-.2.12-.22-.06a.21.21,0,0,0-.08-.16h0c0-.1,0-.21-.08-.27v-.07s.12,0,.11-.11-.06-.06-.11,0-.25-.17-.27,0l.23.13-.06.1.06-.1-.23-.13a.09.09,0,0,0,0,.11h0l0,0a.14.14,0,0,0,0,.17v.12a.46.46,0,0,0,.17.5s.08,0,.09.09,0,0,0,0c-.17-.06-.38,0-.54-.15a.17.17,0,0,0-.14,0H110c-.16,0-.57.11-.64.3s0,.14.06.12.16,0,.22.08a.39.39,0,0,0,.49,0,.2.2,0,0,1,.2-.11c0,.06.1.13.19.11h0c0,.3.34.26.46.55,0,.06.07.06.11,0h.1a.82.82,0,0,0,.27,0A.45.45,0,0,0,111.83,106Zm-.71-1.33,0,.16Z"/><path class="cls-35" d="M144.3,115.83c0-.09,0-.21,0-.31a.43.43,0,0,0,0-.34c0-.06-.09,0-.15.06a1.27,1.27,0,0,0-.06.18.57.57,0,0,1-.13.1.36.36,0,0,0-.17.25,2.43,2.43,0,0,1-.83.67s-.07,0-.09.08a1.1,1.1,0,0,0-.23.76.3.3,0,0,1-.05.19c-.09.11-.15.24-.25.35a.56.56,0,0,0-.18.36c0,.21-.21.6,0,.6s.31-.1.36-.13l0,0,0,0c.05,0,.11,0,.15-.11a2.33,2.33,0,0,0,.26-.38c.14-.28.33-.56.48-.83s.34-.57.46-.85l0-.06a.37.37,0,0,0,.11-.25.11.11,0,0,1,0-.1s0,.06.09,0a.24.24,0,0,0,.08-.16A.06.06,0,0,0,144.3,115.83Zm-.49.47,0,0,0,0Z"/><path class="cls-36" d="M129.51,95.19a.33.33,0,0,0,.23.06c.3,0,.35-.16.53-.12s.19,0,.24-.18a.45.45,0,0,0,0-.23c-.1-.32.28-.15,0-.44a.59.59,0,0,0-.46-.17c-.12,0-.24,0-.24.2s-.29,0-.32.11a.28.28,0,0,0,0,.25s.1.07.09.15-.06.09-.09.14,0,0-.05,0S129.43,95.13,129.51,95.19Z"/><path class="cls-37" d="M110,91.24s-.14.07-.2.1a2.47,2.47,0,0,0-.29.22l0,0c0,.07-.08.09-.09.08s-.12,0-.19,0a.32.32,0,0,0-.11.09c0,.07,0,.08,0,.06a1.68,1.68,0,0,0,.28-.13l.16-.1s.07,0,0,0,0,0,.41-.21a.2.2,0,0,0,.09-.09s0,0,.08-.06a1.22,1.22,0,0,0,.07-.17s0,0,0,0a.35.35,0,0,0-.17.1S110,91.25,110,91.24Zm-.35.24a.1.1,0,0,1,.08,0S109.65,91.48,109.63,91.48Zm.07,0h0Z"/><path class="cls-38" d="M112.08,106.67c.11-.07.22,0,.33,0,.27-.1.23.34.35.09,0-.06,0-.16.12-.14s.33-.11.49,0,.24-.18,0-.22-.41-.41-.71-.3-.24-.06-.41,0-.07,0-.08.06,0,.06,0,.08.09.1,0,.24.11,0,.11,0-.05.08-.1.08a2.35,2.35,0,0,0-.29,0s-.1,0-.06.09S112,106.71,112.08,106.67Z"/><path class="cls-39" d="M142.23,94.38c-.2-.17-.38-.35-.33-.37h0l-.33-.41c-.08,0,0,.07-.08,0l-.06,0s0,0,0,0h0c-.07,0-.07,0,0,.06h0s0,0,0,0h0s-.09-.07,0,0-.13-.07-.06,0l.12.12a2.4,2.4,0,0,0,.29.23l.05,0a.58.58,0,0,0,.13.11c.14.12.34.25.46.34Zm-.68-.66s-.05-.08-.05-.08.05.06.05.08l0,0Z"/><path class="cls-40" d="M107.8,92.64a5.08,5.08,0,0,0,.43-.33l.06-.06.09-.09a1.35,1.35,0,0,0,.17-.17c0-.06,0,0,0,0l0,0a.91.91,0,0,0-.13.1,3.2,3.2,0,0,0-.49.44C107.76,92.67,107.76,92.67,107.8,92.64Z"/><path class="cls-41" d="M111,90.52a.27.27,0,0,0,.13-.09.12.12,0,0,0,.05-.05s0,0,0,0c-.23.12-.27.17-.23.1s.07,0,.12-.1a1,1,0,0,0-.4.16.55.55,0,0,0-.18.1.21.21,0,0,0-.1.13h0A1.83,1.83,0,0,0,111,90.52Z"/><path class="cls-42" d="M139.18,91.32l.32.28s.07,0,.05,0a1.16,1.16,0,0,1,.17.16s0,0,0,0,0,0,.12.07h0s0,0,0,0l-.17-.16,0,0s-.1-.07-.12-.08a1,1,0,0,1-.21-.17c-.15-.12-.28-.21-.41-.3v0l.05,0C139.06,91.23,139.11,91.25,139.18,91.32Z"/><path class="cls-43" d="M140.71,92.58l0,0,0,0-.15-.16-.05,0-.13-.11,0,0c-.07-.06-.11-.09-.09,0h0c0-.05-.08-.1-.08-.08h0v0s0,0,0,0l.13.13a3,3,0,0,1,.3.25s0,0,0,0,0,0,0,0l.16.15h0l.17.16Zm-.16-.14.09.08Z"/><path class="cls-44" d="M118.16,128.78c-.12-.07-.22,0-.31-.1s-.16,0-.21.06-.06,0,0,.09.1,0,.28.13.25,0,.3,0,.06,0,0-.06S118.19,128.8,118.16,128.78Z"/><path class="cls-45" d="M111.19,104c.06.12.22-.1.14-.18s-.53-.31-.5,0S111.07,103.78,111.19,104Z"/><path class="cls-46" d="M109.92,91.79v0h0v0a.32.32,0,0,0,.1-.1c0-.06,0,0,0,0a.66.66,0,0,0-.38.21l-.09,0a1.3,1.3,0,0,0-.32.23l0,.06c0,.06.16-.08.1,0a.42.42,0,0,1-.19.11s-.23.12-.2.16.27-.16.4-.06.13,0,.24-.08l.13-.1.12-.09c.12-.07.12-.07.19-.22s0-.07.05-.11,0-.07-.08,0h0S109.9,91.81,109.92,91.79Zm-.15.12h0l0,0Z"/><path class="cls-47" d="M141.09,93.87s0,.1.11.15l.07,0h0l.1,0s.11,0,.07,0a.84.84,0,0,0-.18-.15S141.11,93.84,141.09,93.87Z"/><path class="cls-48" d="M111.55,93.39s0,.07,0,.07.29-.1.42-.28a.59.59,0,0,0-.33.11S111.58,93.35,111.55,93.39Z"/><path class="cls-49" d="M111,106.52s-.09,0-.11.06,0,.11.08.14a.43.43,0,0,0,.4,0,.08.08,0,0,0,0-.13C111.25,106.56,111.26,106.49,111,106.52Z"/><path class="cls-50" d="M115.37,96.1s0,0-.06.07.14.09.21.11.34.13.38,0a.08.08,0,0,0,0-.08A.94.94,0,0,0,115.37,96.1Z"/><path class="cls-51" d="M122.57,130.18a.51.51,0,0,0,.21.12c.07,0,.11.15.21.11A.36.36,0,0,0,122.57,130.18Z"/><path class="cls-52" d="M133.26,88.4l.05,0h0a.13.13,0,0,0,.08.08c.24.12.29.38.44.42a1.66,1.66,0,0,1,.38.25c.1.08.11.07.14,0s0-.07,0-.08.14,0,.13-.1.09-.05.18,0,.13.07.28.22,0,.08,0,.14a.92.92,0,0,0,.25.09c.07.07.17.2.2.12s.15.07.16,0,0,0-.15-.1a.75.75,0,0,0-.17-.14.22.22,0,0,0-.12-.08h0c-.05-.06-.1-.13-.14-.13v0h0v0L135,89s-.05-.07-.08-.11l.27.12a1.23,1.23,0,0,0,.73.24.76.76,0,0,0-.14-.1,5.77,5.77,0,0,0-.54-.29s0,0-.09,0-.14,0-.23-.08l-.4-.24s0,0-.07,0-.08,0-.13,0h0s0,0,0,0-.31-.26-.44-.24l0,0c-.05.12-.12-.07-.18-.06v0c-.13-.11-.06.09-.22,0-.34-.24-.38-.24-.52-.25s0,0,0,.09h0s.05.06.06.09-.08,0-.08,0A.38.38,0,0,0,133.26,88.4Zm2,.91Zm-.91-.75Zm-.75,0Zm-.36-.21h0Zm-.12-.19h0Zm-.09.07h0S133,88.24,133.05,88.26Z"/><path class="cls-53" d="M111.73,90.17s.09-.13,0-.11a.54.54,0,0,0-.2.1.31.31,0,0,0-.09.11C111.46,90.35,111.51,90.31,111.73,90.17Z"/><path class="cls-54" d="M109,91.79s.16-.07.28-.15a.45.45,0,0,0-.2,0,.18.18,0,0,0-.06,0S109,91.78,109,91.79Z"/><path class="cls-55" d="M113.8,106.6c0,.09.07.07.19.08s.14,0,.21,0a.09.09,0,0,0,0-.14C114.15,106.44,113.79,106.42,113.8,106.6Z"/><path class="cls-56" d="M130.11,93.52c0-.23.2-.11.19-.3s-.33.09-.3.26S130.11,93.61,130.11,93.52Z"/><path class="cls-57" d="M130.26,93.56a.12.12,0,0,1,.06.16c0,.08,0,.11.09.12h.05c0,.1-.16.06-.15.16s0,.06.05.06.2.13.29.07,0,.13,0,.18h.06c.09.19.14,0,.38.24a1.05,1.05,0,0,1,.06.24h0c-.29,0-.38-.08-.37,0s0,.1.1.1l0,.05c0,.09-.07.12-.1.19h-.08c-.09,0-.05.14,0,.14s.13,0,.17.06,0,.1-.24.33a.06.06,0,0,0,0,.06,0,0,0,0,0,.06,0,.47.47,0,0,1,.33,0,.06.06,0,0,0,.07,0c0-.08.12-.07.2-.06s.15,0,.23,0,.34,0,.52,0,.18,0,.26-.09a.11.11,0,0,0,0,0c-.07-.12,0-.18,0-.25s-.07-.27-.23-.31-.22-.43-.51-.55-.08-.28-.4-.47,0-.16.05-.37-.09-.13-.31-.17c-.06,0-.13,0-.16-.07s.07-.07.12-.13.06-.11.07-.17-.08-.14-.1-.08c-.09.26-.39,0-.43.16h0l-.06.11h0s-.05,0-.05.06h0c-.06,0-.11,0-.17,0S130.2,93.51,130.26,93.56Z"/><path class="cls-58" d="M108.6,92.19c-.32.27,0-.11-.33.15l-.22.2s.07,0,0,0-.25.23-.3.23a3.36,3.36,0,0,0-.38.24c.09-.1.12-.1.19-.18s-.09,0-.23.2a.17.17,0,0,1-.06.06l-.08.07-.06,0a1.93,1.93,0,0,1-.16.15,1.82,1.82,0,0,1-.14.14l-.09.11.13-.11h0s.09-.07.2-.15l.06,0,0,0,0,0,0,0,0,0s0,0,0,.06l0,0c-.06.09,0,0,.06,0a5.12,5.12,0,0,0,.5-.38c.51-.43.64-.41,1-.74S108.76,92.06,108.6,92.19Z"/><path class="cls-59" d="M110.25,90.62l.2-.1s.09-.1,0-.08a.93.93,0,0,0-.19.11.12.12,0,0,0,0,0S110.24,90.63,110.25,90.62Z"/><path class="cls-60" d="M112.28,93.3s0,.11.07.09.25-.27.08-.23A.26.26,0,0,0,112.28,93.3Z"/><path class="cls-61" d="M128.9,102.66a.71.71,0,0,0-.18.39c.21,0,.17-.24.27-.35a.17.17,0,0,0,0,0A0,0,0,0,0,128.9,102.66Z"/><path class="cls-62" d="M108.82,92.16A.79.79,0,0,0,109,92S109,92,108.82,92.16Z"/><path class="cls-63" d="M112.7,105.48c0-.09-.06-.09-.11-.1a.06.06,0,0,0-.08.06.17.17,0,0,0,.1.13S112.68,105.53,112.7,105.48Z"/><path class="cls-64" d="M107.72,92.69l0,0s0,0,0,0a.49.49,0,0,0-.14.12Z"/><path class="cls-65" d="M115.71,92.7c.11,0,.09-.2,0-.18S115.59,92.73,115.71,92.7Z"/><path class="cls-66" d="M146.21,108.39s-.09,0-.09,0,0,.06,0,.06h0c.05,0,.13,0,.13-.07S146.25,108.41,146.21,108.39Z"/><path class="cls-67" d="M112,105.27s.08,0,.09-.11-.15-.13-.16,0S112,105.28,112,105.27Z"/><path class="cls-68" d="M125.3,85.65l.42.06C125.68,85.63,125.63,85.64,125.3,85.65Z"/><path class="cls-69" d="M126.91,87.19a0,0,0,0,0,0,0s.08,0,.07-.07a.05.05,0,0,0,0-.05S126.89,87.11,126.91,87.19Z"/><path class="cls-70" d="M114.84,93.14s0,0,0,0a.12.12,0,0,0,.1-.09s0,0,0,0A.11.11,0,0,0,114.84,93.14Z"/><path class="cls-71" d="M127.52,91.25c.08,0,.1,0,.17-.06v0s.09,0,.1,0h0s0,0,0,0h0a.06.06,0,0,0,.07,0s0,0,.07,0,.18-.12.27-.17.06-.11,0-.18h0l-.3-.24h0a.31.31,0,0,1-.13-.06c-.17-.13-.21.11-.48,0a.41.41,0,0,0-.22,0l-.06,0c-.08,0-.14.06-.22,0s-.11,0-.16,0-.12.07-.19,0a.16.16,0,0,0-.13-.07c-.17-.08-.07-.17-.5,0a.27.27,0,0,0-.07.08c-.06.09.05.1.14.09s.25,0,.26,0-.14,0-.32.13c.15.06.28,0,.39.11s.06.11,0,.14,0,0,0,0,.06,0,.09,0c.51,0,.44.19.68.14h0c.17,0,.34.06.45-.13h0Zm.2-.25Zm-.79-.06v0h0Zm.21.18-.08,0,.08,0a.22.22,0,0,1,.07-.12A.22.22,0,0,0,127.14,91.12Zm.09,0h0v0Z"/><path class="cls-72" d="M110.05,91.51s0,0,0,0S110,91.54,110.05,91.51Z"/><path class="cls-73" d="M109.28,91.4s-.07.12,0,.09l.35-.23s.06-.05.08-.05,0,0,0,0,0,0-.1.1a1.13,1.13,0,0,0,.22-.14s-.05,0,0,0,.07-.07.09-.06.17-.07.28-.15.07-.07.06-.07,0-.08-.07-.06a1.18,1.18,0,0,1-.16.08c-.06,0-.19.13-.28.16l-.13.08a4.12,4.12,0,0,0-.33.25C109.18,91.48,109.22,91.44,109.28,91.4Zm.49-.33Z"/><path class="cls-74" d="M134.19,91.27v0h0Z"/><path class="cls-75" d="M137.67,91.92l0,0S137.69,92,137.67,91.92Z"/><path class="cls-76" d="M143.67,100.06l0,.08h.05A.16.16,0,0,0,143.67,100.06Z"/><path class="cls-77" d="M139.27,99.07v0S139.28,99.09,139.27,99.07Z"/><path class="cls-78" d="M111,98.26c-.06,0,0,.09-.06.15l.13-.1S111,98.23,111,98.26Z"/><path class="cls-79" d="M134.83,99a.88.88,0,0,1,0-.28.22.22,0,0,0-.1-.23c-.06,0-.23.07-.12.28a1.2,1.2,0,0,1,.11.23.18.18,0,0,1-.13.08s-.07,0,0,.07c.15.29,0,.57.19.56s.19-.3.2-.37A.37.37,0,0,0,134.83,99Z"/><path class="cls-80" d="M138.67,101.19h0s-.07,0-.07.06.16,0,.23.13.27.06.4.08,0,0,0,0S138.82,101.24,138.67,101.19Z"/><path class="cls-81" d="M140.75,101.63s0,.08,0,.12a.25.25,0,0,0,.14,0c.12,0,.23-.06.23-.24a.34.34,0,0,1-.2,0C140.86,101.55,140.82,101.62,140.75,101.63Z"/><polygon class="cls-82" points="140.99 101.39 140.99 101.4 140.99 101.39 140.99 101.39"/><path class="cls-83" d="M133.11,99.36c0,.08.21.18.21,0S133.13,99.26,133.11,99.36Z"/><path class="cls-84" d="M141.14,101.55h0S141.14,101.53,141.14,101.55Z"/><path class="cls-85" d="M144.12,100.59l0,.06A.1.1,0,0,0,144.12,100.59Z"/></g><g id="Ñëîé_3" data-name="Ñëîé 3"><g class="cls-86"><ellipse class="cls-87" cx="124.2" cy="199.34" rx="51.69" ry="12.11"/><ellipse class="cls-88" cx="124.2" cy="199.34" rx="30.73" ry="7.2"/><ellipse class="cls-89" cx="124.2" cy="199.34" rx="13.91" ry="3.26"/></g></g></g></svg>